<svg xmlns="http://www.w3.org/2000/svg" version="1.1" width="600px" height="600px" viewBox="0 0 200 200" style="overflow:hidden!important;"><g id="svga-group-wrapper"><g id="svga-group-backs-single"></g><g id="svga-group-humanwrap-move" transform="matrix(1,0,0,1,2,4)"><g id="svga-group-humanwrap" transform="matrix(1.1500005000000004,0,0,1.1500005000000004,-14.910051359398878,-18.446933819286386)"><g id="svga-group-hair-back-move" transform="matrix(1,1.3877787807814457e-16,-1.3877787807814457e-16,1,1.4210854715202004e-14,0)"><g id="svga-group-hair-back" transform="matrix(0.9799999,0,0,0.9998999000000001,0,0)"></g></g><g id="svga-group-humanbody-back"><path id="SvgjsPath43466" d="M166.5 181.1c-10.9-6.6-27.6-8.4-35-12.1-4.9-2.5-9.1-4.7-8.9-17.8s1.9-42.4 1.9-42.4H75.4s1.6 29.4 1.9 42.4-4.2 15.6-8.9 17.8c-7.4 3.5-24.1 5.4-35 12.1-10.8 6.6-10 18.9-10 18.9v19.7h153.3V200c-.1 0 .7-12.3-10.2-18.9z" fill="#b57247" stroke-width="none" opacity="1" stroke="none"></path></g><g id="svga-group-chinshadow-single"><path id="SvgjsPath43838" d="M124.5 108.9H75.4c.1 1.8 1.6 29.7 1.9 42.3.1 2.6-.1 4.8-.3 6.6 11.9 10.2 23 9 23 9s11.1 1.2 23-8.9c-.3-1.8-.4-4-.4-6.6.2-12.8 1.8-40.6 1.9-42.4z" fill="#964c1d" stroke-width="none" opacity="0.65"></path></g><g id="svga-group-humanbody-front"><path id="SvgjsPath43467" d="M78.7 156.8c.5 4.8 1.7 9.4 3.1 13.9.8 2.3 1.6 4.6 2.6 6.9.8 2 1.7 4.2 3.1 5.9.3.4 1 0 .9-.5-.5-2.2-1.6-4.3-2.4-6.4-.9-2.2-1.7-4.4-2.5-6.6-1.5-4.4-2.8-8.9-4.1-13.3-.2-.4-.8-.3-.7.1zm41.3-1c-1.3 8.2-3.9 16.1-5.4 24.2-.1.4.4.5.6.2 3.1-7.7 4.1-16.1 5.1-24.3-.1-.2-.3-.2-.3-.1zm-25.8 11.9c-.9 3.6 1.9 8.6 6.2 7.6.5-.1.4-.8 0-1-1.4-.5-2.9-.9-3.9-2.1-1.1-1.2-1.5-2.9-1.4-4.5 0-.4-.8-.5-.9 0z" fill="#964c1d" stroke-width="none" opacity="1" stroke="none"></path><path id="SvgjsPath43468" d="M177.3 219.7c-.1-6.6-.3-13.1-.3-19.7l-.3-.3c.1 0 .1 0 .2.1s.1.2.1.1v-1.4c0-.5-.1-.9-.1-1.4-.1-.9-.3-1.9-.5-2.8-.5-1.8-1.1-3.6-2-5.3-1.7-3.4-4.4-6.2-7.7-8.1-3.6-2.2-7.6-3.8-11.6-5.1-4-1.3-8.1-2.4-12.1-3.5-4-1.2-8.1-2.2-11.8-4.2-1.9-1-3.6-2.1-4.8-3.6-1.2-1.6-1.9-3.5-2.3-5.5-.8-4-.4-8.2-.3-12.4l.7-12.6 1.5-25.2.1-1.4h-1.4c-8.2 0-16.4 0-24.6.1l-24.6.3h-.9l.1.9c.8 11.9 1.6 23.8 2.1 35.7.1 3 .3 6 .2 8.9-.1 2.9-.4 5.9-1.6 8.6-.6 1.3-1.4 2.5-2.4 3.5s-2.3 1.8-3.6 2.4c-2.6 1.3-5.4 2.2-8.3 3-5.8 1.5-11.6 2.8-17.3 4.7-2.8.9-5.7 2-8.4 3.4-1.3.7-2.7 1.4-4 2.4-1.3.9-2.4 1.9-3.5 3.1-2.1 2.3-3.6 5.2-4.5 8.1-.5 1.5-.8 3-1 4.6-.1.8-.1 1.6-.1 2.4v2.3l-.2 17.9v1.3h1.4l38.3.2c12.8.1 25.5.1 38.3 0 12.8-.1 25.6-.1 38.3-.3 12.8-.2 25.6-.5 38.3-.7h.6v-.5zm-77.2-1.6H61.8l-37 .2-.1-16.6v-2.2c0-.7 0-1.4.1-2.1.1-1.4.4-2.8.8-4.2.8-2.7 2.1-5.3 3.9-7.5.9-1.1 2-2.1 3.1-2.9 1.1-.9 2.4-1.6 3.7-2.3 2.6-1.4 5.3-2.5 8.1-3.5 5.6-2 11.4-3.4 17.1-5.1 2.9-.8 5.8-1.7 8.5-3.1 1.3-.7 2.7-1.5 3.8-2.6 1.1-1.1 2-2.4 2.6-3.9 1.2-2.9 1.5-5.9 1.6-8.9 0-3-.1-6-.2-9l-1.3-34.8 23.5.4c7.7.1 15.4.1 23.1.1-.4 7.9-.8 15.9-1.1 23.8-.2 4.2-.2 8.4-.3 12.6 0 4.2-.2 8.5.8 12.8.5 2.1 1.3 4.2 2.8 6 1.4 1.7 3.4 2.9 5.3 3.8 3.9 1.9 8 2.8 12.1 3.8s8.2 2 12.2 3.3c4 1.3 7.9 2.8 11.5 5 3.2 1.9 5.8 4.7 7.5 8 .9 1.6 1.5 3.4 1.9 5.2.2.9.4 1.8.4 2.7.1.5.1.9.1 1.4V200l-.3 19c-12.6-.2-25.1-.5-37.7-.7-12.7-.1-25.5-.1-38.2-.2z" fill="#873c0c" stroke-width="none" opacity="1" stroke="none"></path></g><g id="svga-group-clothes-single"><path id="SvgjsPath43349" d="M180.3 220.1c0-17.5-1.6-28.7-1.6-28.7-3.2-15.2-22.5-16.1-31.1-18.5-2.8-.8-13.9-4.5-13.9-4.5-4-8.6-9.1-13.4-9.1-13.4s1.1 16.6-4.8 20.7c-2.8 1.9-8.9 3.1-11.2 5-2.4 2-5.9 10.2-5.9 10.2s-8.5-12.5-10.7-12.3c-4.7.5-8 0-9.2-.4-6.7-2-6.7-23.4-6.7-23.4s-6.5 4.6-9.4 12.4c-3.2 1.4-11 3.2-15 4.7-8.3 3.1-27.5 5.6-30.5 19.6 0 0-1.6 11.2-1.6 28.7l160.7-.1z" fill="#39557e" stroke-width="none" opacity="1"></path><path id="SvgjsPath43350" d="M180.6 210.1c0-3.3-.1-6.7-.3-10-.1-1.7-.2-3.3-.3-5l-.2-2.5-.1-1.3c-.1-.4-.2-.9-.3-1.3-.9-3.4-2.8-6.5-5.4-8.9-2.6-2.3-5.7-4-8.9-5.1-3.2-1.2-6.5-2-9.8-2.7 0 0-17.5-4.4-20.3-5.9-1.1-2.4-2.4-4.7-3.9-6.9-.8-1.2-1.6-2.3-2.5-3.4-.9-1.1-1.7-1.9-2.8-2.9-.2-.2-1-.7-1.3-.7-.7-.1-1 .6-1.1 1.3v.1c-.4 3.8-.6 14.2-1.3 15.9-.8 1.7-1.8 3.2-3.2 4-1.5.9-3.4 1.5-5.2 2.2-.9.3-1.9.7-2.8 1.1-1 .4-1.9.9-2.9 1.6-1 .9-1.5 1.7-2.1 2.6-.6.9-1.1 1.8-1.5 2.6l-1.8 3.6c-2.2-3-4.4-6-7-8.7-.4-.4-.8-.8-1.3-1.2-.2-.2-.5-.4-.8-.6-.3-.2-.6-.4-1.2-.4h-.6l-.4.1-.8.1c-.5.1-1.1.1-1.6.1-1.1 0-2.1 0-3.2-.1-1-.1-2.2-.2-3-.5-.8-.3-1.6-1-2.2-1.8-.6-.8-1.2-1.7-1.7-2.6-1-1.9-1.6-13.9-2.3-18.2 0-.1-.1-.1-.1-.2-.2-.2-.5-.2-.7-.1-1.1.8-2.1 1.7-3 2.7s-1.8 2-2.6 3c-.8 1.1-1.5 2.2-2.2 3.3-.7 1.1-1.2 2.2-1.7 3.4-3.8 1.7-10.8 3-14.7 4.4-4 1.4-8.1 2.3-12.2 3.6-4.1 1.3-8.2 2.9-11.8 5.5-1.8 1.3-3.4 2.9-4.8 4.7-1.3 1.8-2.3 4-2.8 6.2v.1c-.3 2.4-.6 4.8-.8 7.2-.2 2.4-.4 4.8-.5 7.2-.1 2.4-.3 4.8-.3 7.2-.1 2.4-.1 4.8-.1 7.2 0 .8.6 1.4 1.4 1.4l40.5.2c13.5 0 27-.1 40.4-.2l40.2-.5 19.9-.3 19.8-.4c.2-3.5.2-6.9.2-10.2zM120.2 177c1-.6 1.9-1.5 2.5-2.4.7-.9 1.2-1.8 1.7-2.8.9-1.9.9-10.8 1.3-13.9.2.3.4.5.7.8.8 1 2.7 3 3.4 4.1 3.5 5.5 5.5 12.6 5.7 14 0 0 2.7 12.7 3.1 17.1-1.7-.8-3.4-1.8-4.9-2.8-2.1-1.4-4.1-2.9-6.1-4.4-2-1.6-3.9-3.1-5.8-4.9-.9-.9-1.8-1.8-2.9-2.5-.7-.4-1.5-.8-2.4-.9 1.2-.2 2.5-.7 3.7-1.4zm-22.1 19.1c-.6-1.7-1.3-3.3-2.2-4.9-.8-1.5-1.7-3-2.8-4.3.4 0 .8.1 1.2.1.9.1 1.9.1 2.8.2h1.7c1 1.4 1.9 2.7 2.8 4.1-1.2 1.4-2.3 2.9-3.4 4.4 0 .2 0 .2-.1.4zm-9.2-16.5c.6 0 1.1 0 1.7-.1l.8-.1H92s.2.1.3.2c.2.1.4.3.5.4.4.3.7.7 1.1 1.1 1.6 1.8 3.2 3.8 4.6 5.8-1.4-.2-2.8-.5-4.3-.7-1.8-.3-3.7-.6-5.5-1-1.8-.4-3.6-.8-5.4-1.3-1.7-.5-3.4-.9-5-1.5l.1-.1c.8-1 1.7-1.9 2.7-2.6.5-.3 1-.6 1.5-.8 1 .3 1.8.4 2.8.5 1.3.2 2.4.2 3.5.2zm-21.7-12.3c.5-1.2 1-2.4 1.6-3.5.6-1.1 1.3-2.2 2.1-3.2s1.6-2 2.6-2.9c.7-.7 1.5-1.4 2.2-2 .1 6.3.8 15.8 1.8 17.9.5 1 1.1 2 1.8 2.9.7.9 1.6 1.8 2.8 2.3.2.1.3.1.5.1-.5.2-1 .4-1.4.7-1.1.6-2 1.6-2.9 2.5-1.8 1.7-3.8 3.3-5.8 4.9s-4 3.1-6.1 4.4c-1.6 1-3.3 2-5 2.8 2.2-18.3 5.7-26.8 5.8-26.9zm-7.7 51.2-38.5.2c0-4.3.1-8.6.2-12.9.1-2.4.2-4.8.4-7.1.2-2.4.4-4.7.6-7.1.4-1.9 1.2-3.8 2.3-5.4 1.1-1.6 2.5-3.1 4.2-4.4.3-.2.5-.4.8-.6 1.6 2.9 3.3 5.7 5 8.5 1.8 2.9 3.6 5.8 5.5 8.7.5.8.9 1.4 1.1 2.2.3.8.5 1.6.6 2.4.4 1.6.6 3.3.8 5l.6 5.1c.2 1.7.3 3.4.5 5.1v-5.1l-.3-5.1c-.1-1.7-.4-3.4-.7-5.1-.2-.9-.4-1.7-.6-2.6-.2-.9-.7-1.7-1.2-2.4-1.9-2.9-3.7-5.8-5.7-8.6-1.8-2.7-3.7-5.4-5.6-8.1 3.1-2.2 6.7-3.7 10.3-5 4-1.4 8.1-2.4 12.2-3.9 3.9-1.6 10.1-2.6 13.9-4.4-1.8 4.4-3.9 10.7-6.6 27.8 0 .2 0 .4.1.6.2.5.8.7 1.3.5 2.4-1.2 4.5-2.6 6.6-4.1 2-1.6 4-3.2 5.9-4.9 1.8-1.7 3.7-3.3 5.3-5.2 1.5.9 3.2 1.6 4.8 2.2 1.8.6 3.6 1.1 5.4 1.5 1.4.3 2.8.5 4.1.6.6 1.7 1.3 3.3 2.2 4.8.9 1.6 1.8 3.1 3 4.5-.1.1-.2.3-.2.5-.1.4-.1.7-.2 1.1-.1.7-.1 1.4-.1 2.1v4.1c.1 2.7.2 5.4.4 8.1l.3 4.1c.1.9.2 1.8.3 2.6-13-.2-26-.3-39-.3zm39.9.3h-.7v-6.7l-.2-8.1c0-1.4-.1-2.7-.1-4 0-.7 0-1.3.1-2s.1-1.2.5-1.8c.6-1.2 1.4-2.3 2.2-3.4l.8-1.1c.1.1.2.2.4.3.6.3 1.3 0 1.6-.6.6-1.3 1.3-2.6 1.9-3.9 1.2 0 2.3-.1 3.4-.3 1.4-.2 2.8-.6 4.2-1-1.8 2.4-3.5 4.9-5.2 7.4-.9 1.3-1.8 2.6-2.7 4l-.7 1-.3.5c-.1.1-.3.5-.3.7-.2.9-.2 1.7-.3 2.5-.1 3.2.1 6.4.3 9.6.2 2.4.4 4.8.7 7.1l-5.6-.2zm40.2.5-34.3-.4-.1-2.4-.1-4.8c-.1-3.2-.2-6.4-.1-9.5 0-.8.1-1.6.2-2.3.1-.2 0-.2.2-.4l.3-.5.6-1c.8-1.4 1.7-2.7 2.5-4.1 1.6-2.6 3.1-5.1 4.6-7.8 1.4-.4 2.8-.9 4.1-1.5 1.3-.6 2.7-1.2 3.9-2l-4.2 1.2c-1.4.4-2.8.9-4.2 1.3l-4.2 1.2c-1 .3-2.1.5-3.1.8.2-.3.3-.7.5-1 .5-.9.9-1.7 1.5-2.5.5-.8 1.1-1.6 1.6-2 .6-.4 1.4-.9 2.3-1.2.9-.4 1.8-.7 2.7-1 .6-.2 1.2-.4 1.8-.7.8.2 1.7.6 2.4 1.1 1.1.7 1.9 1.6 2.7 2.6 1.7 1.9 3.6 3.6 5.4 5.3 1.9 1.7 3.8 3.3 5.9 4.9 2.1 1.5 4.2 2.9 6.6 4.1.2.1.4.1.6.1.5-.1.9-.6.8-1.1-.8-5-3.9-22.1-5.7-26.1 2.6 1.4 26.2 7.5 29.2 8.6 2.1.8 4.2 1.7 6.1 2.9-2 2.7-3.9 5.5-5.8 8.3-1.9 2.8-3.8 5.7-5.7 8.6-.4.7-1 1.5-1.2 2.4-.3.9-.5 1.7-.6 2.6-.3 1.7-.6 3.4-.7 5.1l-.3 5.1c0 1.7-.1 3.4 0 5.1.2-1.7.3-3.4.5-5.1l.6-5.1c.2-1.7.5-3.4.9-5l.6-2.4c.2-.8.6-1.4 1.1-2.2 1.8-2.9 3.7-5.8 5.5-8.7 1.8-2.9 3.5-5.8 5.1-8.7.8.5 1.6 1 2.3 1.6 2.4 2 4.2 4.7 5.1 7.8l.3 1.1.2 1.2.3 2.5.5 4.9c.3 3.3.6 6.6.8 9.9l.5 9.9-40.5-.7zm-37.8-21.9c.7 0 1.2.5 1.2 1.2s-.5 1.2-1.2 1.2-1.2-.5-1.2-1.2.5-1.2 1.2-1.2zm9.1-15.2c.7 0 1.2.5 1.2 1.2s-.5 1.2-1.2 1.2-1.2-.5-1.2-1.2.6-1.2 1.2-1.2zM102 216c.7 0 1.2.5 1.2 1.2s-.5 1.2-1.2 1.2-1.2-.5-1.2-1.2.5-1.2 1.2-1.2z" fill="#18355f" stroke-width="none" opacity="1"></path></g><g id="svga-group-head" transform="matrix(1,1.3877787807814457e-16,-1.3877787807814457e-16,1,1.4210854715202004e-14,0)"><g id="svga-group-ears-left-move" transform="matrix(1,0,0,1,1.5,0)"><g id="svga-group-ears-left"><path id="SvgjsPath43362" d="M61.3 90s-2.5-2.4-5.4-3.5-6.1.7-7.1 3.7c-1 2.9 1.3 15.1 5 19.5s6.2 4.8 8.7 2.5c2.5-2.3 7-10.8-1.2-22.2z" fill="#b57247" stroke-width="none" opacity="1" stroke="none"></path><path id="SvgjsPath43363" d="M62.6 91.8c.4.6.8 1.3 1.2 1.9.4.6.7 1.4 1.1 2 .3.7.6 1.4.9 2.2.2.8.5 1.5.6 2.4.1.4.2.8.2 1.2l.1 1.2c0 1.7-.2 3.4-.7 4.9-.5 1.6-1.2 3-2.2 4.2-.2.3-.5.6-.8.8-.3.2-.6.5-.9.7-.6.4-1.3.7-2.1.8-.7.1-1.5 0-2.2-.3s-1.3-.7-1.8-1.2c-.6-.5-1.1-1-1.6-1.6s-.9-1.1-1.4-1.8c-1.7-2.6-2.6-5.7-3.4-8.7-.4-1.5-.8-3-1.1-4.6s-.6-3.2-.5-4.9c0-.4.1-.9.2-1.3.1-.2.1-.4.2-.6l.3-.6c.4-.7.9-1.3 1.5-1.8 1.2-1 2.6-1.4 4-1.2.7.1 1.4.3 2 .6.6.3 1.2.7 1.8 1.1 1.2.8 2.3 1.6 3.3 2.6l1.3 2zm-4.7-4.1c-.6-.3-1.2-.6-1.8-.8-.6-.2-1.2-.3-1.8-.3-1.2.1-2.3.6-3.3 1.4-.5.4-.9.9-1.2 1.5-.2.3-.3.6-.4.9-.1.3-.2.6-.2.9-.2 1.4-.1 3 .1 4.6.2 1.5.4 3.1.8 4.6.8 3 1.9 6 3.6 8.2.9 1.1 1.9 2.1 3 2.9s2.2 1.3 3.3 1.1c.5-.1 1.1-.3 1.6-.7.5-.4 1-.8 1.4-1.3.8-1 1.5-2.3 1.9-3.7.5-1.4.7-2.8.7-4.3s-.2-3-.4-4.5c-.6-3-2-5.8-3.7-8.2-1.3-.9-2.4-1.7-3.6-2.3z" fill="#a65e30" stroke-width="none" opacity="1" stroke="none"></path><path id="SvgjsPath43364" d="M52.6 89.6c3.3.6 5.4 6.1 6 9.8.1.1.1.2.2.3.4.6-.4 1.2-.8.6-.5-.8-1-1.6-1.8-1.9-1.4-.5-2.1 1.1-1.8 2.6.4 1.9 1.6 3 2.6 4.4.1.1 0 .3-.1.2-1.7-1-4.3-4.8-3.1-7.2.9-1.7 2.3-1.4 3.4-.4-.8-2.1-1.4-4.3-3-5.9-.5-.5-1.5-1.4-2.2-1.3-1.3.2-1.3 2.1-1.3 3.4-.1 1.7.1 3.4.4 5 0 .2-.2.2-.3.1-.7-2.4-2-10.4 1.8-9.7z" fill="#964c1d" stroke-width="none" opacity="1" stroke="none"></path></g></g><g id="svga-group-ears-right-move" transform="matrix(1,0,0,1,-1.5,0)"><g id="svga-group-ears-right"><path id="SvgjsPath43365" d="M138.7 90s2.5-2.4 5.4-3.5 6.1.7 7.1 3.7c1 2.9-1.3 15.1-5 19.5s-6.2 4.8-8.7 2.5c-2.5-2.3-7-10.8 1.2-22.2z" fill="#b57247" stroke-width="none" opacity="1" stroke="none"></path><path id="SvgjsPath43366" d="M138.6 89.9c1.1-1 2.2-1.8 3.3-2.6.6-.4 1.2-.7 1.8-1.1.6-.3 1.3-.6 2-.6 1.4-.2 2.8.3 4 1.2.6.5 1.1 1.1 1.5 1.8l.3.6c.1.2.2.4.2.6.1.4.2.9.2 1.3.1 1.7-.2 3.3-.5 4.9s-.7 3.1-1.1 4.6c-.9 3-1.8 6-3.4 8.7-.4.7-.9 1.2-1.4 1.8-.5.6-1 1.1-1.6 1.6s-1.2.9-1.8 1.2c-.7.3-1.4.4-2.2.3-.7-.1-1.4-.4-2.1-.8-.3-.2-.6-.4-.9-.7-.3-.3-.6-.5-.8-.8-1-1.2-1.7-2.6-2.2-4.2s-.7-3.3-.7-4.9l.1-1.2c0-.4.1-.8.2-1.2.1-.8.4-1.6.6-2.4.3-.7.6-1.5.9-2.2.4-.7.7-1.4 1.1-2 .4-.6.8-1.3 1.2-1.9l1.3-2zm.1.1c-1.7 2.4-3 5.2-3.7 8.2-.3 1.5-.5 3-.4 4.5s.3 2.9.7 4.3 1.1 2.6 1.9 3.7c.4.5.8 1 1.4 1.3.5.4 1 .6 1.6.7 1.1.2 2.2-.3 3.3-1.1 1-.8 2.1-1.8 3-2.9 1.7-2.3 2.8-5.2 3.6-8.2.4-1.5.6-3.1.8-4.6s.3-3.1.1-4.6c0-.4-.1-.6-.2-.9-.1-.3-.3-.6-.4-.9-.3-.6-.7-1-1.2-1.5-.9-.8-2.1-1.3-3.3-1.4-.6 0-1.2.1-1.8.3-.6.2-1.2.5-1.8.8-1.4.6-2.5 1.4-3.6 2.3z" fill="#a65e30" stroke-width="none" opacity="1" stroke="none"></path><path id="SvgjsPath43367" d="M147.4 89.6c-3.3.6-5.4 6.1-6 9.8-.1.1-.1.2-.2.3-.4.6.4 1.2.8.6.5-.8 1-1.6 1.8-1.9 1.4-.5 2.1 1.1 1.8 2.6-.4 1.9-1.6 3-2.6 4.4-.1.1 0 .3.1.2 1.7-1 4.3-4.8 3.1-7.2-.9-1.7-2.3-1.4-3.4-.4.8-2.1 1.4-4.3 3-5.9.5-.5 1.5-1.4 2.2-1.3 1.3.2 1.3 2.1 1.3 3.4.1 1.7-.1 3.4-.4 5 0 .2.2.2.3.1.7-2.4 2-10.4-1.8-9.7z" fill="#964c1d" stroke-width="none" opacity="1" stroke="none"></path></g></g><g id="svga-group-faceshape-wrap" transform="matrix(0.9799999,0,0,0.9998999000000001,2.001009989741135,0.0094599246410354)"><g id="svga-group-faceshape-single"><path id="SvgjsPath43826" d="M143.2 82v-.3c-1.3-29.9-20.7-46.4-43.2-46.4S58.1 51.8 56.9 81.7v.3c0 3 0 30.2 5.7 41.9C77.7 155 100 153.7 100 153.7s22.3 1.4 37.5-29.8c5.7-11.7 5.7-38.9 5.7-41.9z" fill="#b57247" stroke-width="none" opacity="1"></path><path id="SvgjsPath43827" d="M137.5 123.9c5.7-11.7 5.7-38.9 5.7-41.9v-.3c-1.3-29.9-20.7-46.4-43.2-46.4S58.1 51.8 56.9 81.7v.3c0 3 0 30.2 5.7 41.9C77.7 155 100 153.7 100 153.7s22.3 1.4 37.5-29.8zM87.7 148c-4.2-1.7-8.5-5.5-11.8-8.8l-2.4-2.5-2.2-2.8c-.8-.9-1.4-1.9-2.1-2.9-.6-1-1.3-1.9-2-3l-1.7-3.1c-.6-1-1.2-2.1-1.6-3.1-1-2-1.6-4.3-2.3-6.6-1.2-4.6-2-9.4-2.6-14.2-.6-4.8-1-9.7-1.2-14.5-.1-2.4-.2-4.9 0-7.2.1-1.2.1-2.4.3-3.6l.6-3.6.1-.9.2-.9.5-1.7.5-1.7c.1-.6.4-1.1.6-1.7.4-1.1.8-2.3 1.3-3.4l1.6-3.2c2.3-4.2 5.3-8 8.8-11.1 3.5-3.1 7.6-5.6 12-7.2s9-2.5 13.6-2.7 9.3.3 13.8 1.5c8.9 2.4 17 7.9 22.6 15.7l2 3c.6 1 1.1 2.1 1.7 3.2.6 1.1 1 2.2 1.5 3.3.4 1.1.9 2.2 1.2 3.4l1 3.5c.2 1.2.5 2.4.7 3.6l.3 1.8.2 1.9c.1 1.5.2 3.8.2 5.3-.1 7.1-.6 14.2-1.8 21.2-.6 3.8-1.4 7.5-2.5 11.2-.3.9-.5 1.8-.9 2.7-.4.9-.6 1.8-1 2.6-.7 1.6-1.8 3.2-2.7 4.9-.5.8-.9 1.6-1.5 2.4l-1.6 2.3c-.6.8-1 1.6-1.6 2.3l-1.8 2.1c-1.1 1.5-2.5 2.7-3.7 4.1-.6.7-3.3 3-4.1 3.5 0 0-2.3 1.8-7.3 4.5-1.2.6-2.4 1.2-3.7 1.6-4.3 1.7-9.1 3.7-21.2-1.2z" fill="#873c0c" stroke-width="none" opacity="1"></path></g></g><g id="svga-group-mouth-single-move" transform="matrix(1,0,0,1,0,1)"><g id="svga-group-mouth-single"><path id="SvgjsPath43701" d="M84.55 124.35c2.12.93 5.56 1.69 7.85 1.77 3.19.02 6.26 2.11 7.48 2.26 2.21.07 3.75-1.85 6.79-2.37 1.47-.35 4.04.01 9.17-1.28-5.01-.22-8.57-1.27-10.43-1.25-2.27.02-3.96 1.19-5.18 1.19-.81.02-3.58-1.23-5.7-.91-4.47.67-9.98.59-9.98.59z" fill="#904539" stroke-width="none" opacity="1" transform="translate(0 2)" stroke="none"></path><path id="SvgjsPath43702" d="M107.46 131.85c1.42-.3 2.04-.44 3.21-1.01-2.36.13-8.45.88-10.82.8-2.64-.09-6.75-.74-9.33-1.2 1.05.53 2.75.91 3.57 1.17 0 0 4.79 1.73 13.37.24z" fill="#964c1d" stroke-width="none" opacity="1" transform="translate(0 2)" stroke="none"></path></g></g><g id="svga-group-eyes-left-move" transform="matrix(1,0,0,1,0,0)"><g id="svga-group-eyes-left"><g id="svga-group-eyesback-left"><path id="SvgjsPath43402" d="M90.4 96.5S89 94 86.9 92.3c-2.1-1.7-5.6-2.5-8.1-2.3-2.5.2-7.1 1.8-9.6 5.5 0 0 2.3 1.2 5.6 1.8 3.3.6 8.9 1.1 12 .4 3-.6 3.6-1.2 3.6-1.2z" fill="#ffffff" stroke-width="none" opacity="1"></path></g><g id="svga-group-eyesiriswrapper-left" transform="matrix(1,0,0,1,0,0)"><g id="svga-group-eyesiriscontrol-left" transform="matrix(1,0,0,1,0,0)"><g id="svga-group-eyesiris-left"><path id="SvgjsPath43483" d="M80.1 88.1c3 0 5.5 2.4 5.5 5.5S83.1 99 80.1 99s-5.5-2.4-5.5-5.5 2.4-5.4 5.5-5.4z" fill="#3e4442" stroke-width="none" opacity="1"></path><path id="SvgjsPath43484" d="M80.1 87.8c-3.2 0-5.7 2.6-5.7 5.7 0 3.2 2.6 5.7 5.7 5.7 3.2 0 5.7-2.6 5.7-5.7s-2.6-5.7-5.7-5.7zm4.7 7.7c-.6-.3-1.2-.6-1.9-.8.1-.2.2-.5.2-.8.7.1 1.3.1 2 .1.1.5-.1 1-.3 1.5zm-.3.6c-.5-.4-1.1-.8-1.7-1.1 0-.1.1-.1.1-.2l1.8.9c0 .2-.1.3-.2.4zm.1-5.1c-.6.1-1.3.4-1.8.8 0-.1-.1-.1-.1-.2.2-.2.5-.3.7-.5.3-.2.6-.5.9-.7 0 .2.2.4.3.6zm.3.8c-.7.2-1.3.3-1.9.6 0-.1-.1-.2-.1-.3.3-.1.6-.3.9-.4.3-.1.7-.2 1-.4 0 .2.1.4.1.5zm-1.7 1.7c0-.3-.1-.6-.1-.8.7-.1 1.3-.3 1.9-.5.1.4.2.9.2 1.4-.6-.1-1.3-.1-2-.1zm.8-3.3c-.3.2-.6.5-.9.7-.2.2-.5.3-.7.5l-.3-.3c.4-.5.8-1.1 1.1-1.7.3.3.6.5.8.8zm-3.6 6.5c.2 0 .5-.1.7-.2.1.3.3.7.4 1 .1.3.2.6.4.8-.4.2-.9.3-1.4.3 0-.6 0-1.3-.1-1.9zm1.4-8c.4.2.9.4 1.3.7-.4.5-.8 1.1-1.2 1.6-.1-.1-.2-.1-.3-.2.1-.7.2-1.5.2-2.1zm-1.5-.3c.4 0 .8.1 1.1.2-.1.5-.1 1-.2 1.5 0 .2-.1.3-.1.5-.2-.1-.4-.1-.6-.2 0-.7-.1-1.4-.2-2zm1.6 9c-.2-.3-.3-.7-.5-1 .1 0 .1-.1.2-.1.1.3.3.6.5.9.2.3.3.6.5.9-.1.1-.2.1-.3.2-.1-.4-.3-.6-.4-.9zm.4-.4c-.2-.3-.3-.6-.5-.9.1-.1.2-.1.3-.2.3.6.7 1.1 1.2 1.6-.1.1-.3.2-.4.3-.2-.2-.5-.5-.6-.8zm-2.1-8.6c-.1.6-.1 1.3-.1 2h-.4c0-.2-.1-.4-.1-.6-.1-.4-.1-.9-.2-1.4.2 0 .4-.1.6-.1.1 0 .1 0 .2.1zm-2.8.7c.3.6.7 1.2 1.1 1.7-.1.1-.2.1-.2.2-.1-.1-.2-.3-.4-.4-.3-.4-.6-.8-1-1.1.2-.2.3-.3.5-.4zm2 1.3c-.1 0-.2 0-.2.1-.2-.7-.4-1.3-.6-1.9.2-.1.4-.1.7-.2-.1.7-.1 1.4.1 2zm-.5.2s-.1 0-.1.1c-.3-.6-.7-1.2-1.1-1.7.2-.1.5-.2.7-.3.1.6.2 1.3.5 1.9zm-.5 5.6c.1 0 .1.1.2.1-.1.2-.2.3-.2.5-.2.4-.5.9-.6 1.3l-.6-.3c.3-.3.5-.7.8-1 .1-.2.3-.4.4-.6zm.4.7c.1-.1.1-.3.2-.4h.1c-.3.6-.5 1.3-.6 1.9-.2-.1-.3-.1-.5-.2.3-.4.5-.9.8-1.3zm.6-.3c.1 0 .2 0 .3.1-.2.6-.2 1.3-.3 2-.2 0-.5-.1-.7-.1.3-.7.5-1.4.7-2zm-2.7-7c.2.4.5.7.8 1 .2.2.3.4.4.6-.1.1-.3.2-.4.4-.5-.4-1.1-.8-1.7-1.1.4-.4.6-.7.9-.9zm-1.1 6.5 1.5-.9c.1 0 .1-.1.2-.1.1.1.2.3.3.4-.5.4-1 1-1.4 1.4-.3-.2-.4-.5-.6-.8zm-.5-1.1c.4-.1.8-.3 1.1-.4.2-.1.5-.2.7-.3 0 .2.1.3.2.5-.1.1-.2.1-.3.2-.5.3-.9.6-1.4 1-.1-.4-.2-.7-.3-1zm-.2-1.5c0-.2 0-.3.1-.5.6.2 1.3.3 2 .3v.5c-.3.1-.6.2-.9.4-.3.1-.7.2-1 .4-.2-.3-.2-.7-.2-1.1zm.3-1.6c.4.2.9.4 1.3.6.2.1.3.2.5.2 0 .1-.1.2-.1.3-.2 0-.3-.1-.5-.1-.5-.1-1-.2-1.5-.1l.3-.9zm.6-1.3c.5.4 1 .9 1.6 1.2-.1.2-.2.3-.3.5-.1 0-.2-.1-.3-.1-.5-.2-1.1-.4-1.6-.6.2-.4.4-.7.6-1zm.5 6.5c.5-.4 1.1-.9 1.5-1.4l.3.3c-.2.2-.3.4-.4.6-.3.3-.5.7-.8 1-.2-.1-.4-.3-.6-.5zm3.5 1.6c.1-.7.2-1.3.2-2h.2c-.1.7-.1 1.4 0 2h-.4zm3.7-1.3c-.4-.5-.9-1-1.3-1.5.2-.2.4-.4.5-.6.5.4 1.1.8 1.7 1.2-.3.2-.6.6-.9.9z" fill="#1b2522" stroke-width="none" opacity="1"></path><path id="SvgjsPath43485" d="M80.1 90.6c1.6 0 2.9 1.3 2.9 2.9s-1.3 2.9-2.9 2.9-2.9-1.3-2.9-2.9 1.2-2.9 2.9-2.9z" fill="#000000" stroke-width="none" opacity="1"></path><path id="SvgjsPath43486" d="M78.4 91c.6 0 1.1.5 1.1 1.1s-.5 1.1-1.1 1.1-1.1-.5-1.1-1.1.5-1.1 1.1-1.1zm3.6 4.1c.4 0 .6.3.6.6s-.3.6-.6.6-.6-.3-.6-.6.3-.6.6-.6z" fill="#ffffff" stroke-width="none" opacity="1"></path></g></g></g><g id="svga-group-eyesfront-left"><path id="SvgjsPath43410" d="M74.8 97.4c3.3.6 8.9 1.1 12 .4s3.6-1.3 3.6-1.3-1.4-2.5-3.5-4.2-5.6-2.5-8.1-2.3c-2.5.2-6.8 1.7-9.3 5.2v-.7c0-6.4 4.7-11.5 10.6-11.5s10.6 5.2 10.6 11.5S86 106 80.1 106c-5.5 0-10.1-4.6-10.6-10.5.6.5 2.6 1.4 5.3 1.9z" fill="#b57247" stroke-width="none" opacity="1" stroke="none"></path><path id="SvgjsPath43411" d="M90.9 98c-3.6 2.6-8.4 4.1-12.9 3.7-.2 0-.2-.2 0-.2 4.7-.5 8.5-1.4 12.7-3.7.3-.2.4.1.2.2z" fill="#a65e30" stroke-width="none" opacity="1" stroke="none"></path><path id="SvgjsPath43412" d="M69.2 95.7c5.5 4.1 15.4 3.7 21.5 1.5.3-.1.5-.5.3-.8-4.8-9.2-16.2-9.3-22-1-.1.1.1.3.2.3zm10.9 1.9c-3.7-.2-7-1.3-10.5-2.2 5.7-6.8 15.6-6.8 20.2.9-3.2 1.1-6.4 1.5-9.7 1.3z" fill="#09112e" stroke-width="none" opacity="1" stroke="none"></path></g></g></g><g id="svga-group-eyes-right-move" transform="matrix(1,0,0,1,0,0)"><g id="svga-group-eyes-right"><g id="svga-group-eyesback-right"><path id="SvgjsPath43403" d="M109.6 96.5s1.4-2.5 3.5-4.2c2.1-1.7 5.6-2.5 8.1-2.3 2.5.2 7.1 1.8 9.6 5.5 0 0-2.3 1.2-5.6 1.8-3.3.6-8.9 1.1-12 .4-3-.6-3.6-1.2-3.6-1.2z" fill="#ffffff" stroke-width="none" opacity="1"></path></g><g id="svga-group-eyesiriswrapper-right" transform="matrix(1,0,0,1,0,0)"><g id="svga-group-eyesiriscontrol-right" transform="matrix(1,0,0,1,0,0)"><g id="svga-group-eyesiris-right"><path id="SvgjsPath43487" d="M119.9 88.1c3 0 5.5 2.4 5.5 5.5S123 99 119.9 99s-5.5-2.4-5.5-5.5 2.5-5.4 5.5-5.4z" fill="#3e4442" stroke-width="none" opacity="1"></path><path id="SvgjsPath43488" d="M119.9 87.8c-3.2 0-5.7 2.6-5.7 5.7 0 3.2 2.6 5.7 5.7 5.7s5.7-2.6 5.7-5.7c.1-3.1-2.5-5.7-5.7-5.7zm4.8 7.7c-.6-.3-1.2-.6-1.9-.8.1-.2.2-.5.2-.8.7.1 1.3.1 2 .1 0 .5-.1 1-.3 1.5zm-.3.6c-.5-.4-1.1-.8-1.7-1.1 0-.1.1-.1.1-.2l1.8.9c0 .2-.1.3-.2.4zm.1-5.1c-.6.1-1.3.4-1.8.8 0-.1-.1-.1-.1-.2.2-.2.5-.3.7-.5.3-.2.6-.5.9-.7 0 .2.1.4.3.6zm.3.8c-.7.2-1.3.3-1.9.6 0-.1-.1-.2-.1-.3.3-.1.6-.3.9-.4.3-.1.7-.2 1-.4 0 .2.1.4.1.5zm-1.7 1.7c0-.3-.1-.6-.1-.8.7-.1 1.3-.3 1.9-.5.1.4.2.9.2 1.4-.6-.1-1.3-.1-2-.1zm.8-3.3c-.3.2-.6.5-.9.7-.2.2-.5.3-.7.5l-.3-.3c.4-.5.8-1.1 1.1-1.7.3.3.6.5.8.8zm-3.6 6.5c.2 0 .5-.1.7-.2.1.3.3.7.4 1 .1.3.2.6.4.8-.4.2-.9.3-1.4.3 0-.6 0-1.3-.1-1.9zm1.4-8c.4.2.9.4 1.3.7-.4.5-.8 1.1-1.2 1.6-.1-.1-.2-.1-.3-.2.1-.7.2-1.5.2-2.1zm-1.5-.3c.4 0 .8.1 1.1.2-.1.5-.1 1-.2 1.5 0 .2-.1.3-.1.5-.2-.1-.4-.1-.6-.2 0-.7-.1-1.4-.2-2zm1.6 9c-.2-.3-.3-.7-.5-1 .1 0 .1-.1.2-.1.1.3.3.6.5.9.2.3.3.6.5.9-.1.1-.2.1-.3.2-.2-.4-.3-.6-.4-.9zm.4-.4c-.2-.3-.3-.6-.5-.9.1-.1.2-.1.3-.2.3.6.7 1.1 1.2 1.6-.1.1-.3.2-.4.3-.2-.2-.5-.5-.6-.8zm-2.1-8.6c-.1.6-.1 1.3-.1 2h-.4c0-.2-.1-.4-.1-.6-.1-.4-.1-.9-.2-1.4.2 0 .4-.1.6-.1.1 0 .1 0 .2.1zm-2.8.7c.3.6.7 1.2 1.1 1.7-.1.1-.2.1-.2.2-.1-.1-.2-.3-.4-.4-.3-.4-.6-.8-1-1.1.2-.2.3-.3.5-.4zm2 1.3c-.1 0-.2 0-.2.1-.2-.7-.4-1.3-.6-1.9.2-.1.4-.1.7-.2-.2.7-.1 1.4.1 2zm-.5.2s-.1 0-.1.1c-.3-.6-.7-1.2-1.1-1.7.2-.1.5-.2.7-.3.1.6.2 1.3.5 1.9zm-.5 5.6c.1 0 .1.1.2.1-.1.2-.2.3-.2.5-.2.4-.5.9-.6 1.3l-.6-.3c.3-.3.5-.7.8-1 .1-.2.3-.4.4-.6zm.3.7c.1-.1.1-.3.2-.4h.1c-.3.6-.5 1.3-.6 1.9-.2-.1-.3-.1-.5-.2.4-.4.6-.9.8-1.3zm.7-.3c.1 0 .2 0 .3.1-.2.6-.2 1.3-.3 2-.2 0-.5-.1-.7-.1.2-.7.5-1.4.7-2zm-2.7-7c.2.4.5.7.8 1 .2.2.3.4.4.6-.1.1-.3.2-.4.4-.5-.4-1.1-.8-1.7-1.1.4-.4.6-.7.9-.9zm-1.1 6.5 1.5-.9c.1 0 .1-.1.2-.1.1.1.2.3.3.4-.5.4-1 1-1.4 1.4-.3-.2-.5-.5-.6-.8zM115 95c.4-.1.8-.3 1.1-.4.2-.1.5-.2.7-.3 0 .2.1.3.2.5-.1.1-.2.1-.3.2-.5.3-.9.6-1.4 1-.1-.4-.2-.7-.3-1zm-.2-1.5c0-.2 0-.3.1-.5.6.2 1.3.3 2 .3v.5c-.3.1-.6.2-.9.4-.3.1-.7.2-1 .4-.2-.3-.2-.7-.2-1.1zm.3-1.6c.4.2.9.4 1.3.6.2.1.3.2.5.2 0 .1-.1.2-.1.3-.2 0-.3-.1-.5-.1-.5-.1-1-.2-1.5-.1.1-.3.1-.6.3-.9zm.6-1.3c.5.4 1 .9 1.6 1.2-.1.2-.2.3-.3.5-.1 0-.2-.1-.3-.1-.5-.2-1.1-.4-1.6-.6.2-.4.4-.7.6-1zm.5 6.5c.5-.4 1.1-.9 1.5-1.4l.3.3c-.2.2-.3.4-.4.6-.3.3-.5.7-.8 1-.2-.1-.4-.3-.6-.5zm3.5 1.6c.1-.7.2-1.3.2-2h.2c-.1.7-.1 1.4 0 2h-.4zm3.7-1.3c-.4-.5-.9-1-1.3-1.5.2-.2.4-.4.5-.6.5.4 1.1.8 1.7 1.2-.3.2-.6.6-.9.9z" fill="#1b2522" stroke-width="none" opacity="1"></path><path id="SvgjsPath43489" d="M119.9 90.6c1.6 0 2.9 1.3 2.9 2.9s-1.3 2.9-2.9 2.9-2.9-1.3-2.9-2.9 1.3-2.9 2.9-2.9z" fill="#000000" stroke-width="none" opacity="1"></path><path id="SvgjsPath43490" d="M118.3 91c.6 0 1.1.5 1.1 1.1s-.5 1.1-1.1 1.1-1.1-.5-1.1-1.1.5-1.1 1.1-1.1zm3.6 4.1c.4 0 .6.3.6.6s-.3.6-.6.6-.6-.3-.6-.6.3-.6.6-.6z" fill="#ffffff" stroke-width="none" opacity="1"></path></g></g></g><g id="svga-group-eyesfront-right"><path id="SvgjsPath43413" d="M125.2 97.4c-3.3.6-8.9 1.1-12 .4s-3.6-1.3-3.6-1.3 1.4-2.5 3.5-4.2 5.6-2.5 8.1-2.3c2.5.2 6.8 1.7 9.3 5.2v-.7c0-6.4-4.7-11.5-10.6-11.5s-10.6 5.2-10.6 11.5S114 106 119.9 106c5.5 0 10.1-4.6 10.6-10.5-.6.5-2.6 1.4-5.3 1.9z" fill="#b57247" stroke-width="none" opacity="1" stroke="none"></path><path id="SvgjsPath43416" d="M109.1 98c3.6 2.6 8.4 4.1 12.9 3.7.2 0 .2-.2 0-.2-4.7-.5-8.5-1.4-12.7-3.7-.3-.2-.4.1-.2.2z" fill="#a65e30" stroke-width="none" opacity="1" stroke="none"></path><path id="SvgjsPath43417" d="M131 95.4c-5.8-8.3-17.3-8.2-22 1-.2.3 0 .7.3.8 6.1 2.2 16 2.6 21.5-1.5.1 0 .3-.2.2-.3zm-20.8.9c4.6-7.7 14.5-7.7 20.2-.9-3.5.9-6.8 2-10.5 2.2-3.3.2-6.5-.2-9.7-1.3z" fill="#09112e" stroke-width="none" opacity="1" stroke="none"></path></g></g></g><g id="svga-group-facehighlight-single"></g><g id="svga-group-eyebrows-left-move" transform="matrix(1,0,0,1,0,0)"><g id="svga-group-eyebrows-left-rotate" transform="matrix(1,1.7453292519943295e-9,-1.7453292519943295e-9,1,1.410797665357677e-7,-1.4017261662502278e-7)"><g id="svga-group-eyebrows-left"><path id="SvgjsPath43323" d="M67.9 82.7c.4-.7.8-1.3 1.2-1.9.1-.3.2-.5.4-.8.3-.6.6-1.2 1.1-1.6.3-.6.9-1.2 1.3-1.7.6-.7 1.7-1.5 2.6-.9 0 0 .1 0 .1.1 1.2-.4 2.7-.5 3.9-.3 1.6.2 3.1.7 4.6 1.2 1.2.4 2.4.8 3.5 1.4.1-.1.3-.2.4-.1 1.1.1 2.3.4 3.1 1.3.1.1.1.1.1.2.3.1.6.2.8.4h.1c.3.1.7.3.9.6.8.3 1.4 1.3 1.7 2.1.4 1.1-.1 2.7-1.2 3.3 0 .1-.1.3-.2.4-.6.6-1.7.4-2.7 0h-.1c-3.3-1.1-6.5-2.6-9.6-4.3-1.4-.4-2.7-.9-4-1.3-.5-.2-1.3-.3-1.8-.6 0 .1-.1.2-.2.3-.7.3-1.4.6-2 .9-.4.2-.9.5-1.3.6-.1.2-.3.4-.4.6-.4.5-.9 1.4-1.6 1.6-.2.4-.4.8-.8.8-.2 0-.3 0-.4-.2-.3-.9.3-1.6.5-2.1z" fill="#080806" stroke-width="none" opacity="1"></path><path id="SvgjsPath43324" d="M89.8 86.1c.2-1.1.6-2.1.5-3.2-.1-1.2-.5-2.2-1-3.3-.1-.2.2-.5.4-.3 1.6 1.7 1.9 5.1.4 7-.1.1-.3 0-.3-.2zm1.5 0c.4-.7.8-1.5.9-2.3.1-.8-.1-1.5-.1-2.3 0-.2.2-.2.3-.1 1.1 1.4.4 3.8-.7 5-.2.2-.6-.1-.4-.3zM82 76.4c3 1.7 5.3 5.6 5.7 9 0 .2-.3.2-.4.1-.6-1.7-1.2-3.3-2.1-4.8-1-1.5-2.2-2.6-3.4-3.9-.4-.2-.1-.5.2-.4zm-4.6-.7c2.7 1.6 6.1 3.5 6.2 7 0 .3-.3.3-.4.1-.6-1.6-1.3-2.8-2.5-3.9-1.1-1-2.4-1.8-3.5-2.8-.2-.2 0-.5.2-.4zm-5.7 1.8c4.2-1.6 8 2.1 10.3 5.1.1.2-.2.4-.3.2-1.3-1.3-2.6-2.8-4.2-3.7-1.9-1.1-3.7-1-5.7-1.2-.3.1-.4-.3-.1-.4zm-4 4.7c1.2-1.3 2.8-1.9 4.5-2.3.2-.1.3.3.1.4-1.6.5-2.9 1.4-4.4 2.2-.2.1-.4-.2-.2-.3z" fill="#171714" stroke-width="none" opacity="1"></path><path id="SvgjsPath43325" d="M66.4 86c0 .2.3.4.4.2 0 0 .1 0 .1-.1 2.6-2.8 5.2-6.1 9.5-4.9 3.1.9 5.9 2.9 8.9 4.1 2.1.8 5.9 2.9 7.9.9 2-1.9.7-4.9-.6-6.8-.2-.3-.7 0-.5.3-.8-.8-1.7-1.5-2.6-1.7-.2-.1-.3.2-.3.3-.3-.2-.6-.3-.9-.4-.9-.5-1.9-1.1-3-1.4-.2-.1-.5.3-.3.5-2.4-1.1-5.2-2-7.9-2.3H76.8c-1.9-.2-3.7 0-5.3.7-.4.2-.3.6-.1.7-.2.1-.4.2-.6.4-.6.4-1.4 1-1.6 1.8 0 .1 0 .2.1.3-.5.6-.9 1.3-1.3 2.1-.5 1.4-1.7 3.6-1.6 5.3zm11.7-10.1c1.1.8 2.3 1.6 3.2 2.7 1.3 1.5 2 3.2 2.6 5-.1-.1-.2-.1-.4-.2-.8-2.1-2.2-3.9-4-5.3-1-.8-2.4-1.7-3.8-2.3.9 0 1.6 0 2.4.1zm13.1 10.2c.7-.8 1-2.1 1-3.1 0-1.2-.4-2.2-1.1-3.1.1 0 .2.1.3.1.6.6 1.2 1.2 1.7 1.8.5 1.3.6 2.7-.5 3.7-.3.4-.8.6-1.4.6zm-6.5-2.2c-.4-2-1.3-3.9-2.6-5.4-.6-.7-1.3-1.6-2.2-2.3 2.5.6 4.8 1.6 7.3 2.4.2.1.3-.1.3-.2.2.1.5.2.8.3.6.3 1.2.6 1.8.8.9 1.1 1.5 2.4 1.3 3.9-.1 1-.6 1.8-1 2.6-.1 0-.2 0-.3-.1.3-1.2.1-2.8-.5-3.8-.1-.2-.5-.1-.4.1l.3 2.1v1.4c-.8-.2-1.6-.6-2.2-.8-1-.2-1.8-.6-2.6-1zm-12.9-3.3c-1.5.7-2.8 1.8-3.8 3.1.2-.7.4-1.3.7-2 .8-1.8 1.8-3.2 3.1-4.6.1-.1.1-.2 0-.2.6-.3 1.2-.6 1.7-.9h.2c.9.4 1.8.6 2.7 1 1 .5 1.9 1.1 2.8 1.8 1.4 1.2 2.5 2.6 3.4 4.2-1.4-.7-2.8-1.4-4.2-2-1-.4-2.1-.8-3.2-.9-1.4-.9-3.2-1.3-4.7-.5-.2.1-.1.4.1.4.9-.1 1.8-.1 2.7.1-.5.1-1 .2-1.5.5z" fill="#000000" stroke-width="none" opacity="1"></path></g></g></g><g id="svga-group-eyebrows-right-move" transform="matrix(1,0,0,1,0,0)"><g id="svga-group-eyebrows-right-rotate" transform="matrix(1,1.7453292519943295e-9,-1.7453292519943295e-9,1,1.4109969015407842e-7,-2.086970454229231e-7)"><g id="svga-group-eyebrows-right"><path id="SvgjsPath43326" d="M132 82.8c-.4-.7-.8-1.3-1.1-2-.1-.3-.2-.5-.4-.8-.3-.6-.6-1.2-1.1-1.6-.3-.6-.9-1.2-1.3-1.7-.6-.7-1.7-1.6-2.6-1 0 0-.1 0-.1.1-1.2-.4-2.7-.5-3.9-.4-1.6.2-3.1.7-4.7 1.2-1.2.4-2.4.7-3.5 1.3-.1-.1-.3-.2-.4-.1-1.1.1-2.3.4-3.1 1.3-.1.1-.1.1-.1.2-.3.1-.6.2-.8.4h-.1c-.3.1-.7.3-.9.6-.8.3-1.4 1.3-1.7 2.1-.4 1.1.1 2.7 1.1 3.3 0 .1.1.3.2.4.6.6 1.7.4 2.7 0h.1c3.3-1.1 6.6-2.5 9.6-4.2 1.4-.4 2.7-.9 4-1.3.5-.2 1.3-.3 1.9-.6 0 .1.1.2.2.3.7.3 1.4.6 2 .9.4.2.9.5 1.3.6.1.2.3.4.4.6.4.5.9 1.4 1.6 1.6.2.4.4.8.8.8.1 0 .3 0 .4-.1.4-.6-.2-1.4-.5-1.9z" fill="#080806" stroke-width="none" opacity="1"></path><path id="SvgjsPath43327" d="M110.1 86.1c-.2-1.1-.5-2.1-.5-3.2.1-1.2.5-2.2 1-3.3.1-.2-.2-.6-.4-.3-1.7 1.7-2 5.1-.4 7 .1 0 .4-.1.3-.2zm-1.4-.1c-.4-.7-.8-1.5-.9-2.3-.1-.8.1-1.5.1-2.3 0-.2-.2-.2-.3-.1-1.1 1.4-.4 3.8.7 5 .2.1.5-.1.4-.3zm9.4-9.6c-3 1.7-5.4 5.5-5.7 8.9 0 .2.3.3.4.1.6-1.6 1.2-3.3 2.2-4.7 1-1.5 2.2-2.6 3.5-3.8.1-.3-.1-.7-.4-.5zm4.5-.7c-2.7 1.6-6.1 3.5-6.3 6.9 0 .3.3.3.4.1.6-1.6 1.3-2.8 2.6-3.9 1.1-1 2.4-1.8 3.6-2.7.2-.2-.1-.5-.3-.4zm5.8 1.9c-4.2-1.6-8 2.1-10.4 5-.1.2.2.4.3.2 1.3-1.3 2.6-2.7 4.3-3.7 1.9-1.1 3.7-1 5.7-1.1.3.1.3-.3.1-.4zm3.9 4.7c-1.1-1.3-2.8-2-4.5-2.3-.2-.1-.3.3-.1.4 1.6.5 2.9 1.4 4.3 2.2.3.1.4-.2.3-.3z" fill="#171714" stroke-width="none" opacity="1"></path><path id="SvgjsPath43328" d="M131.8 80.8c-.4-.7-.8-1.4-1.3-2.1.1-.1.1-.2.1-.3-.1-.8-1-1.4-1.6-1.8-.2-.1-.4-.3-.6-.4.3-.2.3-.6-.1-.7-1.6-.7-3.4-.9-5.2-.7H122.8c-2.7.2-5.5 1.2-7.9 2.2.2-.2-.1-.5-.3-.5-1 .2-2 .9-3 1.3-.3.1-.6.3-.9.4.1-.2-.1-.4-.3-.3-.9.2-1.9.9-2.6 1.7.2-.4-.3-.7-.5-.3-1.3 1.9-2.6 4.8-.7 6.8 2 2 5.8 0 7.9-.8 3-1.2 5.8-3.2 9-4.1 4.3-1.2 6.9 2.1 9.5 5l.1.1c.2.2.4 0 .4-.2.1-1.7-1-3.9-1.7-5.3zm-7.6-5c-1.4.5-2.8 1.4-3.8 2.2-1.8 1.4-3.2 3.2-4 5.3-.1.1-.2.1-.4.2.6-1.8 1.4-3.5 2.7-5 .9-1.1 2.1-1.8 3.3-2.7h2.2zm-16.9 9.6c-1.1-1-.9-2.4-.4-3.7.6-.6 1.1-1.2 1.7-1.8.1 0 .2-.1.3-.1-.7.9-1.1 1.9-1.1 3.1 0 1 .2 2.2.9 3.1-.5 0-1-.2-1.4-.6zm5.5-.5c-.6.2-1.4.6-2.2.8 0-.4-.1-.9 0-1.4.1-.7.3-1.4.3-2.1 0-.2-.3-.3-.4-.1-.7.9-.8 2.5-.6 3.8-.1 0-.2 0-.4.1-.4-.9-.9-1.6-1-2.7-.1-1.4.4-2.8 1.4-3.8.6-.3 1.2-.6 1.8-.8.2-.1.5-.2.8-.3 0 .1.1.3.3.2 2.5-.7 4.8-1.7 7.3-2.3-.8.7-1.6 1.5-2.2 2.3-1.3 1.6-2.2 3.4-2.6 5.4-.8.3-1.6.6-2.5.9zm13.9-4.7c.8-.2 1.7-.2 2.7-.1.2 0 .3-.3.1-.4-1.5-.8-3.3-.4-4.7.5-1.1.1-2.2.4-3.2.9-1.4.6-2.8 1.3-4.2 2 .9-1.6 2-3 3.5-4.2.9-.7 1.8-1.3 2.8-1.8.9-.4 1.8-.6 2.7-1h.2c.6.3 1.2.6 1.7.9 0 .1-.1.2 0 .2 1.3 1.4 2.4 2.8 3.1 4.6.2.6.4 1.3.6 2-1-1.3-2.2-2.5-3.8-3.2-.5-.2-1-.4-1.5-.4z" fill="#000000" stroke-width="none" opacity="1"></path></g></g></g><g id="svga-group-beardwrap" transform="matrix(0.9799999,0,0,0.9998999000000001,2.0229804670246097,0.013747561800386165)"><g id="svga-group-beard-single-move" transform="matrix(1,0,0,1,1,-3)"><g id="svga-group-beard-single"><path id="SvgjsPath43314" d="M90.9 134.6s8.5 2.7 18.5.5c0 0-.7 3.4-1.7 5.2-1 1.8-2.7 3.8-2.7 3.8l.2-.9s-.9 1-1.9 1.6l-.1-.6s-1 .9-2.5 1.5l-2-.8.1.4s-2.4-.5-3.6-2.4l-.2.5c-.1.2-3.8-3.6-4.1-8.8z" fill="#080806" stroke-width="none" opacity="1"></path><path id="SvgjsPath43315" d="M94.4 140.9c-.1-.2-.4-.1-.3.1.2.7.6 1.4 1 1.9-.7-.7-1.4-1.5-1.9-2.5-.6-1.2-1-2.5-1.5-3.8 0-.1-.1-.1-.2-.1-.1-.6-.2-1.1-.2-1.8 0-.2-.3-.2-.3 0-.4 2.2.4 4.8 1.8 6.6.1.1.2.1.2 0 .6 1.1 1.5 2 2.5 2.3.1 0 .1 0 .1-.1.3.3.6.6 1 .8.2.1.3-.1.2-.2-1-1-1.9-1.9-2.4-3.2zm8.4 2.3c-.8.8-1.5 1.7-2.4 2.4-.4-.4-.8-.7-1.2-1-.4-.4-.8-.9-1.2-1.4-.2-.2-.6 0-.4.2.3.5.8 1.1 1.2 1.5l.2.2c-.5-.4-1-.7-1.4-1.1-.5-.5-.9-1-1.3-1.6-.2-.2-.5 0-.3.2.6 1.2 1.5 2.8 3.1 2.9.2 0 .2-.2.2-.3.3.3.6.5.9.6-.1.2.1.4.3.3 1.1-.7 2.1-1.6 2.6-2.8 0 0-.2-.2-.3-.1zm1.8-.4c-.3.3-.5.6-.8.9-.3.2-.6.5-.9.8-.1.1 0 .1 0 .1l-.2.2c-.1.1 0 .3.2.2.8-.4 1.5-1.2 1.9-2.1 0-.1-.1-.3-.2-.1zm2-2.1c-.6 1.2-1.3 2.3-2.3 3.2-.2.1.1.4.2.2 1-.9 1.8-2.1 2.2-3.4h-.1zm2.7-5.4c0-.2-.2-.2-.3 0-.3.9-.4 1.9-.7 2.8l-.3.9c-.5 1.1-1 2.1-1.7 3-.1.2.2.3.3.2.3-.4.6-.8.8-1.3.1.1.2.1.3 0 1.1-1.5 1.8-3.7 1.6-5.6zm-14.7 5.6c.3.4.7.8 1.2 1.1.1.1.3-.1.2-.2-.7-1-1.5-1.9-1.9-3.1-.1-.2-.3-.1-.3 0-.2-.6-.4-1.2-.5-1.8 0-.2-.4-.2-.4.1.2 1.4.6 2.9 1.7 3.9-.1 0 0 0 0 0zm2.5 1.6c.1.1.2-.1.1-.2-.5-.5-1-1-1.4-1.6-.1-.1-.3 0-.2.1.4.6.8 1.3 1.5 1.7zm-4.2-4.9c-.1-.6-.2-1.1-.4-1.6 0-.1-.2-.1-.2.1.1.5.2 1.1.4 1.6.1 0 .2 0 .2-.1zm3.8 2.5c.2.8.6 1.6 1.1 2.3.1.1.3 0 .3-.2-.6-1.2-1.2-2.3-1.3-3.7 0-.2-.4-.2-.4 0v.4c-.2-.9-.3-1.7-.5-2.6 0-.2-.3-.1-.3 0-.1 1.3.1 2.7.7 3.9.2.1.4.1.4-.1zm1.6 1.7c.3.9.9 1.9 1.7 2.5.1.1.2-.1.1-.2-.7-.8-1.2-1.4-1.6-2.4 0-.2-.3-.1-.2.1zm2 1.2c.1.6.1 1.2.2 1.8 0 .2.3.1.3 0 .2-.6 0-1.3-.1-1.9-.1-.2-.4-.1-.4.1zm-.4-2.7c-.3-.6-.6-1.3-.7-2 0-.2-.3-.2-.3 0 .1.8.3 1.5.8 2.1.1.1.3 0 .2-.1zm.8 1.1c.1-.6-.1-1.4-.1-2 0-.2-.3-.2-.3 0 .1.7.1 1.4.2 2 0 .1.2.1.2 0zm1.7 1.9c.8-.8 1.2-1.9 1.5-2.9.1-.2-.3-.3-.4-.1-.4 1-.9 1.9-1.3 2.9-.1.1.1.2.2.1zm-4.5-3.9c.3 1.1.8 2.6 1.9 3.2.2.1.4-.1.3-.3-.3-.5-.7-1-1.1-1.5v-.2c-.3-1.3-.7-2.7-1.1-4 0-.2-.3-.1-.3 0 .1.8.2 1.7.4 2.5-.1.2-.1.2-.1.3zm6.1 3.2c.6-.6.8-1.6 1-2.4.1-.2-.3-.3-.4-.1-.1.4-.3.9-.4 1.3-.2.3-.4.6-.5 1 0 .2.2.4.3.2zm1.9-2.6c.2-.5.3-1.1.5-1.6.1-.2-.3-.3-.4-.1-.2.5-.3 1.1-.4 1.6 0 .2.2.2.3.1zm.9-.7c.4-.7.5-1.5.6-2.2 0-.2-.3-.3-.4-.1-.1.8-.4 1.5-.5 2.2 0 .1.3.3.3.1z" fill="#000000" stroke-width="none" opacity="1"></path></g></g></g><g id="svga-group-mustache-single-move" transform="matrix(1,0,0,1,0,0)"><g id="svga-group-mustache-single"></g></g><g id="svga-group-nose-single-move" transform="matrix(1,0,0,1,0,3)"><g id="svga-group-nose-single"><path id="SvgjsPath43531" d="M105.06 106.65c.56.92 2.64 3.61 3.09 4.9.45 1.29-.13 3.22-1.48 3.61s-3.61-.39-3.93-.19c-.32.19-1.87 2.06-2.58 1.93-.71-.13-2.64-2.13-3.03-2.13-.39 0-2.13.45-2.97.45-.84 0-2.9-.71-2.64-2.51.26-1.81 2.45-5.54 2.9-6.06.45-.52 1.48-2.32 1.74-3.42s.58-7.03.71-8.38c.13-1.35 1.35-2.97 2.58-3.09 1.23-.13 3.35.77 3.55 2.9.19 2.13.58 6.38.77 8.12.19 1.74.58 2.71 1.29 3.87z" fill="#b57247" stroke-width="none" opacity="1" transform="translate(0 1)" stroke="none"></path><path id="SvgjsPath43532" d="M97.62 85.76c-.84 3.5-.96 7.24-1.34 10.81-.4 3.83-1.14 7.78-1.09 11.63 0 .31.48.39.55.07.78-3.52.88-7.26 1.24-10.84.39-3.82 1.1-7.79.98-11.63 0-.18-.29-.24-.34-.04z" fill="#873c0c" stroke-width="none" opacity="1" transform="translate(0 1)" stroke="none"></path><path id="SvgjsPath43533" d="M94.46 106.19c-1.03 1.37-1.9 2.87-2.65 4.41-.49 1-1.09 2.17-.77 3.32.53 1.89 2.93 2.49 4.5 1.58.47-.27.26-.99-.27-1-.92-.01-1.98.28-2.72-.5-.88-.94-.01-2.63.38-3.57.58-1.39 1.28-2.72 1.83-4.12.07-.19-.2-.26-.3-.12z" fill="#873c0c" stroke-width="none" opacity="1" transform="translate(0 1)" stroke="none"></path><path id="SvgjsPath43534" d="M94.31 113.98c2.84-.21 3.38 3.37 6.07 3.45 2.31.07 2.5-3.41 4.69-3.3.26.01.34-.35.13-.47-2.49-1.47-2.95 2.86-5.24 2.59-1.36-.16-2.32-2.16-3.54-2.73-.83-.39-1.43-.36-2.23.02-.22.09-.11.46.12.44z" fill="#873c0c" stroke-width="none" opacity="1" transform="translate(0 1)" stroke="none"></path><path id="SvgjsPath43535" d="M104.29 115.6c1.87.42 4.05-.16 4.49-2.24.22-1.04-.13-2.07-.67-2.95-.89-1.44-2.03-2.66-2.87-4.15-.14-.25-.49-.12-.51.14-.11 1.67 1.13 2.83 2.02 4.12.82 1.19 1.53 2.83.15 4-.63.54-1.83.44-2.6.59-.26.04-.25.43-.01.49z" fill="#873c0c" stroke-width="none" opacity="1" transform="translate(0 1)" stroke="none"></path><path id="SvgjsPath43536" d="M102.45 109.98c-.41-.74-1.47-.85-2.06-.26-.05.05-.24.29-.3.36-.07.09-.2.26-.23.29-.07.1-.12.21-.18.32l-.12.28c0-.01-.01.01-.03.05-.06.06-.12.13-.18.2-.18.19-.36.38-.5.6-.42.67-.08 1.42.48 1.84.87.65 2.13.13 2.74-.61.76-.89.96-2.03.38-3.07z" fill="#bd7d53" stroke-width="none" opacity="1" transform="translate(0 1)" stroke="none"></path></g></g><g id="svga-group-hair-front" transform="matrix(0.9799999,0,0,0.9998999000000001,1.994604775830453,0.0069298219545288475)"><path id="SvgjsPath43873" d="M146.8 58.2c-.3-1-.6-2.1-1-3.1-.1-5.4-4.8-11-10.5-14 .5-.1.8-.7.4-1.2-2.8-3.6-7.8-4.1-11.7-2.3l-.1-.1c-1.3-2.7-3.3-5-5.4-6.7-.4-.4-1.1.2-.7.6 1.1 1.1 2 2.3 2.7 3.6-.2-.1-.4-.2-.5-.3-4.7-6-14.1-8.7-21.2-7.8-.7.1-.8 1-.2 1.2.8.3 1.7.6 2.6.9h-2.6c-2.7-.4-5.5-.4-8.2-.1-15.2-.1-31.3 7.4-36.2 21.8-3.8 6-5.6 13-4.2 20.1-.3 5 .3 10.1 2 14.4.2 1.7.6 3.5 1.2 5.1 1.1 7.3 3.5 14.5 7.9 20.5.3.5 1 .1.8-.4-1.1-2.4-2.1-4.8-3-7.1.2-.1.4-.2.5-.5.3 1.1.5 2.2.9 3.2.1.2.5.2.5-.1 0-2.4 0-4.8-.1-7.2.1.7.2 1.4.3 2.2.1.4.7.3.7-.1-.2-4.2-.2-8.4 0-12.5.3-2.3.6-4.7 1-7 .2-.3.3-.7.5-1-1 4-1.6 8.2-1.1 12.1 0 .3.5.4.6.1 2-5.8 2.6-12 4.5-17.9.7-2.1 1.4-4.1 2.2-6.1.8-.9 1.7-1.9 2.6-2.8.5-.3.9-.6 1.4-.9-3.9 4.9-6.7 10.5-7.6 15.9-.1.3.4.5.6.2 1.6-2.6 3.1-5.2 4.6-7.7.1.1.3.1.5 0 .5-.4 1.1-.8 1.6-1.1.2.1.4.1.6 0 1.2-.6 2.4-1.3 3.7-1.9-.3.4.2 1 .7.9 3.8-.6 7.4-1.9 11-3.4-1.7 1.2-3.4 2.5-5 3.9-1.3.8-2.5 1.7-3.7 2.8-.5.5.1 1.2.7.9 6.2-3.3 13.1-6.1 19.8-9.3-4.4 2.5-8.9 4.6-13.4 6.9-.4.2-.1.9.3.7 3.8-1.4 7.9-3 11.8-4.8-1.4 1.2-2.9 2.5-4.1 3.8-.6.5-1.3.9-1.9 1.4-.7.6.1 1.7.8 1.4 1.2-.4 2.5-.8 3.8-1.3.1.1.3.1.5.1 5.9-1.1 11.7-5.1 16.3-8.8.8-.6 1.5-1.3 2.2-2-1.4 1.7-3.1 3.2-5.2 4.5-.6.4-.1 1.4.6 1 3.7-1.9 7.2-5 9.7-8.6 1 5.5 3.8 10.7 8.2 13.6 1.9 2.9 3.8 6 5.9 8.9 1.1 2.7 2 5.4 2.7 8.2.1.8.2 1.6.2 2.4.3 6.2-1.6 11.7-4.1 17.3-.3.7.5 1.4 1.1.8 1.3-1.3 2.4-2.8 3.2-4.4.2.1.4 0 .6-.2.2.2.6.2.8-.2.4-.7.8-1.5 1.2-2.2.1-.1.2-.2.2-.3v-.2c2.2-4.9 3.8-10.9 4.5-16.4.2-.8.4-1.5.5-2.2.2 0 .4-.2.4-.4.3-1.1.5-2.2.6-3.4.3-1.6.5-3.2.5-4.8 0 .1.1.2.1.4.1.5.9.4.9-.1.5-6.1-.4-13-3-18.9zM63.9 40.6c-.3.3-.7.5-1 .8 1.5-1.5 3.1-2.8 4.9-4-1.4 1-2.7 2.1-3.9 3.2zm26 24.1c-3.4 1.4-6.8 2.8-10.2 4.3 5.1-2.7 10.1-5.4 15-8.2l-4.8 3.9zm-3.5-5.5c-2.7 1.5-5.4 3.1-8 4.8 3.4-2.7 6.7-5.3 10.7-7.2C91 55.9 93 55 95 54.2c-2.8 1.7-5.7 3.4-8.6 5z" fill="#080806" stroke-width="none" opacity="1" stroke="none"></path><path id="SvgjsPath43874" d="M125 48.7c-3.7 12.9-15.8 17.5-26.7 22.8-.3.2-.1.7.2.6 11.4-3.9 24.2-10.5 26.8-23.3.1-.3-.2-.4-.3-.1zm-2.2-.7c-3.1 6.3-9.6 9.1-15.6 12.2-6.7 3.4-13.4 6.7-19.9 10.4-.4.2 0 .7.3.5 8.2-3.7 16.2-7.9 24.1-12.1 4.9-2.6 9.6-5.4 11.5-10.8.2-.3-.2-.5-.4-.2zm-2.6.5c-6.8 4.7-14.2 8.1-22.1 10.6-.3.1-.2.5.1.5 8.1-2 15.5-5.7 22.2-10.6.4-.2.1-.7-.2-.5zm-11.8.5c-14.4.8-28.5 6.7-39 16.6-.2.2.1.5.3.3C81 56.6 93.8 51 108.4 49.2c.3 0 .3-.3 0-.2zm-10.7 8.3c-9.4 2.8-18.5 8-25.7 14.7-.3.2.1.6.4.4 7.9-6.3 16-10.8 25.4-14.5.4-.1.3-.7-.1-.6zm-23.9-1c-7.3 9.2-11.9 21.1-12.2 33 0 .4.5.4.6 0 1.6-12 5.3-22.5 12.2-32.5.1-.4-.4-.8-.6-.5zm-8.2 7.2c-5.5 9.6-7.9 20.9-6.1 31.8.1.3.6.3.6-.1-.8-11.1.9-21.5 5.9-31.5.1-.3-.2-.5-.4-.2zm-5.3 40.4c-2.8-9.9-4.1-19.5-2.6-29.7 0-.3-.4-.4-.4-.1-1.7 10-1.4 20.5 2.3 30 .2.4.8.2.7-.2zm5.4-60.6C54.3 52.4 48.2 68.6 52 82.9c.1.3.5.2.5-.1-2.3-14.9 2.2-29 13.6-39 .3-.3-.1-.7-.4-.5zM62 53.6c-6.4 9.1-9.8 20.3-8.3 31.4 0 .3.5.3.5 0-.5-11.3 1.9-21.8 8.2-31.2.1-.3-.2-.5-.4-.2zm48-19.5c-11.6-4.5-26.1-5.4-37.1 1.2-.2.1 0 .4.2.3 12.2-5.6 24.2-4.5 36.8-1 .3.2.5-.4.1-.5zm8.7 4c-3.7-4.8-9.2-7.8-14.9-9.4-.3-.1-.5.4-.1.5 5.7 2 10.2 5.3 14.6 9.3.3.2.6-.1.4-.4zm3.7 2.3c-.6-1-1.5-1.8-2.3-2.7-.9-.9-1.8-1.8-2.8-2.6-.3-.2-.7.2-.4.4l2.7 2.7c.8.8 1.5 1.8 2.4 2.5.2.3.5 0 .4-.3zm-.9-4.3c-.3-.3-.8.1-.6.5.5.7 1 1.5 1.4 2.3.4.8.6 1.7 1 2.5.2.3.6.2.6-.2-.1-1.8-1.3-3.7-2.4-5.1zm13.4 40.7c-6.4-6.4-9.9-14-10-23.2 0-.2-.3-.2-.3 0-.7 9 2.9 17.9 10 23.5.2.2.5-.1.3-.3zm4 2.5c-.1-.3-.6 0-.4.3 1.5 3.3 2.4 6.6 2.8 10-2.9-9.8-9.2-18.4-11.4-28.5-.1-.4-.6-.2-.6.2.8 4.9 2.7 9.2 4.8 13.6 2.8 5.8 4.9 11.7 7.3 17.6.1 4.2-.5 8.5-1.8 12.9-.1.3.4.5.5.2 3.9-8.5 3-18.2-1.2-26.3zm5.3-10.6c-.1-.3-.5-.2-.5.1.8 4.6 1.2 9.1 1 13.7-.3-2.2-.9-4.4-1.7-6.6-.1-.3-.5-.2-.4.1 1.8 7.2 1.9 13.9.3 21.2-.1.4.5.5.6.2 1.1-3.5 1.6-7.1 1.6-10.7 1.1-5.9.9-12.1-.9-18zm-2.9-18.3c-.2-.4-.8 0-.6.3 4.2 7.9 5.9 16 6.5 24.8 0 .4.7.4.7 0 .4-8.7-2.3-17.4-6.6-25.1zm-3.1-4.3c-2.9-3.1-6.8-6-11.3-4.8-.3.1-.2.5.1.4 4.4-.9 7.6 2.2 10.8 4.7.3.3.7-.1.4-.3zm-3.5 16.5c-.2-.3-.6 0-.4.2 2.9 5 4.6 10.2 5.9 15.8.1.3.6.2.5-.1-.7-5.6-2.9-11-6-15.9zM95.2 37.9c-13 1.2-24.9 8.4-31.2 20-.1.2.1.3.2.1 6.7-11.2 17.9-18.7 31-19.8.2 0 .2-.3 0-.3z" fill="#000000" stroke-width="none" opacity="1" stroke="none"></path><path id="SvgjsPath43875" d="M117.8 46.4c-7 4.5-14.3 7.9-22.2 10.5-.2.1-.1.4.1.4 8-2.1 15.5-5.8 22.2-10.6.3-.1.1-.4-.1-.3zm3.5 1.1c-3.1 6.8-12.9 10-19.4 12.4-.2.1-.1.4.1.3 4.6-1.2 8.9-3.1 13-5.5 2.9-1.7 5.8-3.6 6.8-7 0-.2-.4-.4-.5-.2zm-36.8-1.4c-8.9 4.5-15.6 12.6-19 21.9-.1.3.3.4.4.1 3.9-9.3 10.4-16.2 18.8-21.5.4-.3.1-.7-.2-.5zm12.1-6.5c-7.5.1-14.7 2.7-20.7 7.2-.1.1 0 .3.2.2 4.3-2.7 8.8-4.6 13.5-5.8C82.4 44.3 76 49 70.5 54.5c-.1.1.1.3.2.2 5.8-5.6 12.4-9.8 19.6-13.5.1 0 .1-.2.1-.3 2-.5 4.1-.8 6.3-1.1.2.2.2-.2-.1-.2zm8.7 6.6c-7.7.9-15.5 2.2-22 6.6-.2.1 0 .4.2.3 6.8-3.9 14.3-5.2 21.9-6.6.1 0 .1-.3-.1-.3zm28.8 15.5c-2.5-4-4.7-8-6-12.5-.1-.3-.5-.2-.4.1 1.1 4.6 3 9.1 6.1 12.7.1.1.4-.1.3-.3zm2.2-.4c-1.7-1.6-2.7-4.1-3.8-6.1-1.2-2.1-2.4-4.3-3.6-6.4-.1-.2-.3 0-.3.2 1.2 2.7 2.5 5.3 3.9 7.9.9 1.7 1.7 3.8 3.6 4.7.1 0 .3-.2.2-.3zm2.6.3c-1.9-4.1-4.7-7.9-7.5-11.5-.2-.2-.6.1-.4.3 2.7 3.7 5.1 7.5 7.5 11.3.1.4.5.2.4-.1zm-10-16.6c-.2-.2-.4.1-.3.3 5.9 7.1 11.8 13.7 14.9 22.6.1.2.4.1.4-.1-2.3-9.1-8.6-16.5-15-22.8zM144 63.4c-2.1-6-5.9-11.7-10.6-16-.2-.2-.4.1-.2.2 4.3 5 7.5 10.1 10.3 16 .1.3.6.1.5-.2zM96.1 44.8c-6.8.6-13.3 3.7-18.1 8.5-.1.1.1.3.2.2 5.5-4.2 11.2-6.8 17.9-8.2.3-.1.3-.5 0-.5zm-2.7 2.3c-3.4.7-6.7 2.1-9.6 3.8-.2.1 0 .4.2.3 3.2-1.3 6.3-2.5 9.6-3.7.1-.1 0-.5-.2-.4zm18.9 1.4c-5.3 3.2-11.6 2.8-17.1 5.1-.3.1-.1.7.2.6 5.5-2.3 12.2-1.6 17.1-5.3.2-.2 0-.5-.2-.4zM96.3 37c-9.1-2.1-20 2-27.9 6.5-.2.1 0 .5.2.4C77 40 86.7 36 96.1 37.5c.4 0 .6-.4.2-.5zm-5.7-2c-6.1.2-12 1.6-17.2 4.9-.2.1 0 .4.2.3 5.5-2.6 10.9-4.4 17-4.7.3 0 .3-.5 0-.5zm-3.9-1.7c-2.7-.2-5.5-.1-8 1-.3.1-.2.5.1.5 2.6-.6 5.2-1 7.8-.8.4-.1.4-.7.1-.7z" fill="#171714" stroke-width="none" opacity="1" stroke="none"></path></g><g id="svga-group-glasses-single-move" transform="matrix(1,0,0,1,0,0)"><g id="svga-group-glasses-single"></g></g></g></g></g><rect id="svga-credit-rect" width="200" height="15" x="0" y="185" fill="#ecf0f1" opacity="0.5" style="display: none;"></rect><text id="svga-credit-text" font-family="Avenir Next, Roboto, Helvetica, Arial, sans-serif" font-size="10px" text-anchor="start" font-weight="400" size="10px" anchor="start" weight="400" fill="#333333" x="33.40447998046875" y="182.60824704170227" style="display: none;"><tspan id="SvgjsTspan43313" dy="13" x="33.40447998046875">Created on AvatarMaker.com</tspan></text></g><defs id="SvgjsDefs43260"></defs></svg>