<?xml version="1.0" encoding="UTF-8" standalone="no"?>
<!-- Created with Inkscape (http://www.inkscape.org/) -->

<svg
   xmlns:dc="http://purl.org/dc/elements/1.1/"
   xmlns:cc="http://creativecommons.org/ns#"
   xmlns:rdf="http://www.w3.org/1999/02/22-rdf-syntax-ns#"
   xmlns:svg="http://www.w3.org/2000/svg"
   xmlns="http://www.w3.org/2000/svg"
   xmlns:sodipodi="http://sodipodi.sourceforge.net/DTD/sodipodi-0.dtd"
   xmlns:inkscape="http://www.inkscape.org/namespaces/inkscape"
   width="210mm"
   height="297mm"
   viewBox="0 0 210 297"
   version="1.1"
   id="svg8"
   sodipodi:docname="chap.svg"
   inkscape:version="0.91 r13725">
  <defs
     id="defs2" />
  <sodipodi:namedview
     id="base"
     pagecolor="#ffffff"
     bordercolor="#666666"
     borderopacity="1.0"
     inkscape:pageopacity="0.0"
     inkscape:pageshadow="2"
     inkscape:zoom="0.49497475"
     inkscape:cx="61.907381"
     inkscape:cy="751.33781"
     inkscape:document-units="mm"
     inkscape:current-layer="layer1"
     showgrid="false"
     inkscape:window-width="1311"
     inkscape:window-height="744"
     inkscape:window-x="55"
     inkscape:window-y="24"
     inkscape:window-maximized="1"
     showguides="false" />
  <metadata
     id="metadata5">
    <rdf:RDF>
      <cc:Work
         rdf:about="">
        <dc:format>image/svg+xml</dc:format>
        <dc:type
           rdf:resource="http://purl.org/dc/dcmitype/StillImage" />
      </cc:Work>
    </rdf:RDF>
  </metadata>
  <g
     inkscape:label="Layer 1"
     inkscape:groupmode="layer"
     id="layer1">
    <path
       style="fill:none;stroke:#000000;stroke-width:0.25692359px;stroke-linecap:butt;stroke-linejoin:miter;stroke-opacity:1"
       d="m 62.80888,73.222683 33.968396,-0.0072 0.0073,-61.180708 -90.416534,0.07184 0.041747,106.045781 89.4643949,111.56034 0.685469,-143.829006 -33.910287,0.181048 0.159567,33.356818 -13.361659,0.10608 -0.374352,-66.810574 13.802105,-0.196929 z"
       id="path20"
       inkscape:connector-curvature="0"
       sodipodi:nodetypes="ccccccccccccc" />
    <path
       style="fill:none;stroke:#000000;stroke-width:0.25527281px;stroke-linecap:butt;stroke-linejoin:miter;stroke-opacity:1"
       d="M 107.43816,152.32766 202.95911,37.726079 202.9066,111.03491 108.3967,230.56912 Z"
       id="path22"
       inkscape:connector-curvature="0"
       sodipodi:nodetypes="ccccc" />
    <path
       style="fill:none;stroke:#000000;stroke-width:0.25405556px;stroke-linecap:butt;stroke-linejoin:miter;stroke-opacity:1"
       d="M 107.90332,131.56952 208.25053,10.912648 157.84837,11.354746 130.22888,47.109969 131.01914,10.81585 108.35246,11.049543 Z"
       id="path24"
       inkscape:connector-curvature="0" />
    <path
       style="opacity:0.5;fill:#ffffff;stroke:#ffffff;stroke-width:2.02030516"
       d="M 192.16954,653.62095 25.042781,445.32707 24.98929,245.82195 24.935799,46.31682 H 194.64143 364.34705 V 160.46406 274.61129 H 301.7176 239.08814 V 236.2255 197.8397 H 211.81402 184.5399 v 127.27922 127.27922 h 27.27412 27.27412 v -62.62946 -62.62945 l 48.9924,-0.0141 c 26.94582,-0.008 54.90179,-0.57288 62.12438,-1.25552 l 13.13198,-1.24114 -0.63043,216.92307 c -0.34675,119.3077 -1.25589,240.19718 -2.02031,268.64332 l -1.38987,51.71999 z"
       id="path163"
       inkscape:connector-curvature="0"
       transform="scale(0.26458333)" />
    <path
       style="opacity:0.5;fill:#ffffff;stroke:#ffffff;stroke-width:2.02030516"
       d="m 410.67301,833.12464 c -0.0776,-18.8343 -0.84354,-84.24673 -1.70213,-145.36095 L 407.4098,576.64691 586.39371,361.78045 765.37761,146.914 765.89689,282.41089 766.41615,417.9078 590.36837,640.719 c -96.82628,122.54617 -176.83675,223.67491 -177.80104,224.73052 -0.99783,1.09232 -1.81404,-12.83555 -1.89432,-32.32488 z"
       id="path165"
       inkscape:connector-curvature="0"
       transform="scale(0.26458333)" />
    <path
       style="opacity:0.5;fill:#ffffff;stroke:#ffffff;stroke-width:2.02030516"
       d="m 409.54575,380.84977 c 0.69758,-62.13057 1.26832,-163.72666 1.26832,-225.76911 V 42.27621 h 41.47404 41.47404 l -1.39074,68.69037 c -0.7649,37.77971 -0.93724,68.69038 -0.38297,68.69038 0.55427,0 24.39043,-30.30924 52.96925,-67.35386 l 51.96149,-67.353856 92.1071,-1.371503 c 50.65889,-0.754326 92.508,-0.970589 92.998,-0.480584 0.71099,0.710992 -364.30704,441.321593 -371.71705,448.696933 -1.35949,1.35312 -1.61096,-35.28467 -0.76148,-110.94432 z"
       id="path167"
       inkscape:connector-curvature="0"
       transform="scale(0.26458333)" />
  </g>
</svg>
