<?xml version="1.0" encoding="UTF-8" standalone="no"?>
<!-- Created with Inkscape (http://www.inkscape.org/) -->

<svg
   xmlns:dc="http://purl.org/dc/elements/1.1/"
   xmlns:cc="http://creativecommons.org/ns#"
   xmlns:rdf="http://www.w3.org/1999/02/22-rdf-syntax-ns#"
   xmlns:svg="http://www.w3.org/2000/svg"
   xmlns="http://www.w3.org/2000/svg"
   xmlns:sodipodi="http://sodipodi.sourceforge.net/DTD/sodipodi-0.dtd"
   xmlns:inkscape="http://www.inkscape.org/namespaces/inkscape"
   width="210mm"
   height="297mm"
   viewBox="0 0 210 297"
   version="1.1"
   id="svg8"
   sodipodi:docname="logo.svg"
   inkscape:version="0.92.0 r15299">
  <defs
     id="defs2" />
  <sodipodi:namedview
     id="base"
     pagecolor="#ffffff"
     bordercolor="#666666"
     borderopacity="1.0"
     inkscape:pageopacity="0.0"
     inkscape:pageshadow="2"
     inkscape:zoom="0.35"
     inkscape:cx="398.57143"
     inkscape:cy="586.19824"
     inkscape:document-units="mm"
     inkscape:current-layer="layer1"
     showgrid="false"
     inkscape:window-width="1366"
     inkscape:window-height="705"
     inkscape:window-x="-8"
     inkscape:window-y="-8"
     inkscape:window-maximized="1"
     showguides="false" />
  <metadata
     id="metadata5">
    <rdf:RDF>
      <cc:Work
         rdf:about="">
        <dc:format>image/svg+xml</dc:format>
        <dc:type
           rdf:resource="http://purl.org/dc/dcmitype/StillImage" />
      </cc:Work>
    </rdf:RDF>
  </metadata>
  <g
     inkscape:label="Layer 1"
     inkscape:groupmode="layer"
     id="layer1">
    <g
       id="g113"
       transform="matrix(1.477373,0,0,1.4017479,-35.207987,-59.660327)">
      <path
         sodipodi:nodetypes="ccccccccccccc"
         inkscape:connector-curvature="0"
         id="path10"
         d="m 26.458332,45.645832 62.881617,0.110708 -0.267269,45.158656 -23.304823,0.423832 0.04586,-15.699441 -5.90449,-0.133635 -0.133633,49.593158 5.992266,-0.0783 -0.110706,-29.085169 23.13339,-0.133636 -0.08222,110.626815 -62.249992,-81.78599 z"
         style="fill:none;stroke:#000000;stroke-width:0.26458332px;stroke-linecap:butt;stroke-linejoin:miter;stroke-opacity:1" />
      <path
         sodipodi:nodetypes="ccccccc"
         inkscape:connector-curvature="0"
         id="path12"
         d="M 94.116071,45.332708 93.802945,135.87143 163.76096,45.229868 128.62261,45.561987 109.35139,72.392734 109.91836,45.15715 Z"
         style="fill:#ffffff;stroke:#000000;stroke-width:0.26458332px;stroke-linecap:butt;stroke-linejoin:miter;stroke-opacity:1" />
      <path
         sodipodi:nodetypes="ccccc"
         inkscape:connector-curvature="0"
         id="path14"
         d="m 93.190124,143.59308 -0.07828,62.40637 65.176326,-86.09473 0.27279,-59.088421 z"
         style="fill:none;stroke:#000000;stroke-width:0.26458332px;stroke-linecap:butt;stroke-linejoin:miter;stroke-opacity:1" />
      <path
         transform="scale(0.26458333)"
         inkscape:connector-curvature="0"
         id="path89"
         d="m 355.57332,436.03586 c 0.16988,-41.34353 0.50323,-117.65356 0.74078,-169.57785 l 0.4319,-94.4078 28.66271,-0.23972 c 15.7645,-0.13184 28.78327,-0.17064 28.9306,-0.0862 0.31541,0.18073 -1.13196,76.13064 -1.76508,92.6219 -0.27493,7.16118 -0.18313,11.18168 0.2492,10.91448 0.37646,-0.23266 17.04341,-23.238 37.03766,-51.12297 l 36.3532,-50.69994 2.85714,-0.36383 c 3.99661,-0.50893 127.5,-1.33006 127.5,-0.8477 0,0.21643 -56.62742,73.76673 -125.83872,163.44512 -69.21128,89.67839 -128.00535,165.86029 -130.65348,169.2931 l -4.81478,6.24147 z"
         style="opacity:1;fill:#ffffff;stroke:#ffffff;stroke-width:0.71428573" />
      <path
         transform="scale(0.26458333)"
         inkscape:connector-curvature="0"
         id="path91"
         d="m 355.44931,411.93724 c 0.23319,-54.80357 0.61983,-131.17171 0.85921,-169.70697 l 0.43523,-70.06412 28.61909,-0.45682 c 15.74051,-0.25125 28.77649,-0.29943 28.96886,-0.10706 0.44782,0.44782 -1.22398,92.07067 -1.78841,98.01354 -0.73912,7.78219 -5.04456,13.20341 46.37469,-58.39286 l 27.44486,-38.21428 29.56858,-0.43612 c 40.47475,-0.59697 100.64001,-0.7271 100.64001,-0.21766 0,0.22971 -3.63578,5.1315 -8.07952,10.89286 -4.44373,5.76136 -26.04519,33.77877 -48.00323,62.26092 -112.77872,146.28713 -204.17749,264.72134 -204.78304,265.35714 -0.43094,0.45247 -0.5249,-35.80893 -0.25633,-98.92857 z"
         style="opacity:1;fill:#ffffff;stroke:#ffffff;stroke-width:0.71428573" />
      <path
         transform="scale(0.26458333)"
         inkscape:connector-curvature="0"
         id="path93"
         d="m 355.16661,462.98316 c 0.0307,-62.61419 1.25326,-290.41817 1.56031,-290.72522 0.12909,-0.12909 13.16477,-0.46474 28.96818,-0.74589 l 28.73347,-0.51118 0.002,14.21819 c 0.001,7.82 -0.34813,29.64675 -0.77601,48.50389 -0.42788,18.85715 -0.66983,35.57143 -0.53766,37.14286 l 0.24029,2.85714 6.42857,-8.6241 c 3.53572,-4.74325 19.92858,-27.43005 36.42858,-50.4151 l 30,-41.79101 27.14285,-0.47673 c 36.84905,-0.64722 103.21429,-0.60546 103.21429,0.065 0,0.29905 -6.80657,9.3794 -15.1257,20.17857 -14.02672,18.20825 -135.69289,175.96364 -211.53202,274.27771 -18.0314,23.375 -33.23132,42.97066 -33.77761,43.54592 -0.84864,0.89364 -0.98978,-6.02174 -0.96949,-47.5 z"
         style="opacity:1;fill:#ffffff;stroke:#ffffff;stroke-width:0.71428573" />
      <path
         transform="scale(0.26458333)"
         inkscape:connector-curvature="0"
         id="path95"
         d="M 216.59234,621.12172 100.6809,468.97887 l -0.0547,-148.22142 -0.0547,-148.22142 115.63191,1.23428 c 63.59755,0.67886 116.31184,1.91421 117.14286,2.74523 0.83102,0.83102 1.51094,38.30203 1.51094,83.26891 v 81.75797 l -42.14285,0.86108 c -23.17858,0.47359 -42.46429,0.75394 -42.85715,0.62299 -0.39285,-0.13096 -0.71428,-13.30953 -0.71428,-29.28572 v -29.04762 h -12.85715 -12.85714 v 94.28572 94.28571 h 12.85714 12.85715 V 418.97887 364.69315 H 292 334.85714 v 204.28572 c 0,112.35714 -0.52951,204.28571 -1.17668,204.28571 -0.64717,0 -53.33683,-68.46429 -117.08812,-152.14286 z"
         style="opacity:1;fill:#ffffff;stroke:#ffffff;stroke-width:2.85714293" />
      <path
         transform="scale(0.26458333)"
         inkscape:connector-curvature="0"
         id="path97"
         d="M 295.47229,725.40744 C 275.20357,699.08601 223.05912,630.88009 179.59575,573.83872 L 100.57143,470.12712 V 321.63282 173.13851 l 115.47814,0.77732 c 63.51297,0.42753 116.22726,1.52732 117.14286,2.44399 0.91559,0.91666 1.66471,38.32366 1.66471,83.12665 v 81.45998 l -41.96559,1.81252 c -23.08108,0.99688 -42.36679,1.41132 -42.85714,0.92097 -0.49036,-0.49035 -0.89155,-14.03691 -0.89155,-30.10345 v -29.2119 L 237,285.24316 l -12.14286,0.87856 -0.75332,93.57143 -0.75333,93.57143 h 12.89618 12.89619 V 418.97887 364.69315 H 292 334.85714 v 204.28572 c 0,112.35714 -0.56984,204.28571 -1.26631,204.28571 -0.69647,0 -17.84981,-21.53571 -38.11854,-47.85714 z"
         style="opacity:1;fill:#ffffff;stroke:#ffffff;stroke-width:2.85714293" />
      <path
         transform="scale(0.26458333)"
         inkscape:connector-curvature="0"
         id="path99"
         d="m 354.85714,656.78915 v -114.2088 l 120.71429,-152.8214 120.71428,-152.82138 0.74876,106.85272 0.74876,106.85272 -106.38849,140.59651 C 432.88107,668.56758 378.22269,740.64744 369.93169,751.41698 l -15.07455,19.581 z"
         style="opacity:1;fill:#ffffff;stroke:#ffffff;stroke-width:2.85714293" />
      <path
         transform="scale(0.26458333)"
         inkscape:connector-curvature="0"
         id="path101"
         d="M 354.85714,656.45467 V 541.35907 L 475.38087,388.78793 c 66.28806,-83.91412 120.93092,-152.16395 121.42858,-151.66628 0.49766,0.49766 0.90484,49.06385 0.90484,107.92487 V 452.06656 L 478.87821,609.09415 c -65.35985,86.36517 -120.0027,158.249 -121.42857,159.74186 -1.55392,1.62691 -2.5925,-43.39432 -2.5925,-112.38134 z"
         style="opacity:1;fill:#ffffff;stroke:#ffffff;stroke-width:2.85714293" />
    </g>
    <path
       style="opacity:1;fill:#000000;stroke:#ffffff;stroke-width:2.85714293"
       d="m 387.71429,699.5921 c 0,-147.78945 0.41369,-162.0246 4.8966,-168.49205 2.69314,-3.88538 82.08599,-99.50432 176.42857,-212.48651 94.34258,-112.98221 173.75337,-208.12507 176.46843,-211.42858 4.69048,-5.70705 4.93765,1.68228 4.95994,148.27934 l 0.0229,154.28572 -175.84055,220 c -96.71169,121 -178.33652,222.53571 -181.38789,225.63491 -5.49355,5.57966 -5.54796,4.0516 -5.54796,-155.79283 z"
       id="path26"
       inkscape:connector-curvature="0"
       transform="scale(0.26458333)" />
    <path
       style="opacity:1;fill:#000000;stroke:#ffffff;stroke-width:2.85714293"
       d="m 390.68755,701.15973 c -0.0647,-84.42154 1.05129,-155.51797 2.52169,-160.64494 1.62699,-5.67297 69.78299,-89.82714 177.85714,-219.60535 l 175.21934,-210.40782 0.73994,149.25549 0.73994,149.25548 -169.7908,211.79728 C 484.58986,737.29839 404.27342,837.10716 399.49383,842.60716 l -8.69017,10 z"
       id="path28"
       inkscape:connector-curvature="0"
       transform="scale(0.26458333)" />
  </g>
</svg>
