<?xml version="1.0" encoding="UTF-8" standalone="no"?>
<!-- Created with Inkscape (http://www.inkscape.org/) -->

<svg
   xmlns:dc="http://purl.org/dc/elements/1.1/"
   xmlns:cc="http://creativecommons.org/ns#"
   xmlns:rdf="http://www.w3.org/1999/02/22-rdf-syntax-ns#"
   xmlns:svg="http://www.w3.org/2000/svg"
   xmlns="http://www.w3.org/2000/svg"
   xmlns:sodipodi="http://sodipodi.sourceforge.net/DTD/sodipodi-0.dtd"
   xmlns:inkscape="http://www.inkscape.org/namespaces/inkscape"
   width="210mm"
   height="297mm"
   viewBox="0 0 210 297"
   version="1.1"
   id="svg8"
   sodipodi:docname="newlogo.svg"
   inkscape:version="0.91 r13725">
  <defs
     id="defs2" />
  <sodipodi:namedview
     id="base"
     pagecolor="#ffffff"
     bordercolor="#666666"
     borderopacity="1.0"
     inkscape:pageopacity="0.0"
     inkscape:pageshadow="2"
     inkscape:zoom="0.49497475"
     inkscape:cx="387.57264"
     inkscape:cy="546.49849"
     inkscape:document-units="mm"
     inkscape:current-layer="layer1"
     showgrid="false"
     inkscape:window-width="1311"
     inkscape:window-height="744"
     inkscape:window-x="55"
     inkscape:window-y="24"
     inkscape:window-maximized="1"
     showguides="false" />
  <metadata
     id="metadata5">
    <rdf:RDF>
      <cc:Work
         rdf:about="">
        <dc:format>image/svg+xml</dc:format>
        <dc:type
           rdf:resource="http://purl.org/dc/dcmitype/StillImage" />
      </cc:Work>
    </rdf:RDF>
  </metadata>
  <g
     inkscape:label="Layer 1"
     inkscape:groupmode="layer"
     id="layer1">
    <path
       style="fill:none;stroke:#000000;stroke-width:0.25692359px;stroke-linecap:butt;stroke-linejoin:miter;stroke-opacity:1"
       d="m 62.80888,73.222683 33.968396,-0.0072 0.0073,-61.180708 -90.416534,0.07184 0.041747,106.045781 89.4643949,111.56034 0.685469,-143.829006 -33.910287,0.181048 0.159567,33.356818 -13.361659,0.10608 -0.374352,-66.810574 13.802105,-0.196929 z"
       id="path20"
       inkscape:connector-curvature="0"
       sodipodi:nodetypes="ccccccccccccc" />
    <path
       style="fill:none;stroke:#000000;stroke-width:0.25527281px;stroke-linecap:butt;stroke-linejoin:miter;stroke-opacity:1"
       d="M 107.43816,152.32766 202.95911,37.726079 202.9066,111.03491 108.3967,230.56912 Z"
       id="path22"
       inkscape:connector-curvature="0"
       sodipodi:nodetypes="ccccc" />
    <path
       style="fill:none;stroke:#000000;stroke-width:0.25405556px;stroke-linecap:butt;stroke-linejoin:miter;stroke-opacity:1"
       d="M 107.90332,131.56952 208.25053,10.912648 157.84837,11.354746 130.22888,47.109969 131.01914,10.81585 108.35246,11.049543 Z"
       id="path24"
       inkscape:connector-curvature="0" />
    <path
       style="fill:none;stroke:#000000;stroke-width:0.18007439px;stroke-linecap:butt;stroke-linejoin:miter;stroke-opacity:1"
       d="M 112.38233,119.08658 199.24409,14.917264 159.94008,14.892554 126.06821,59.1854 126.60765,14.53927 112.27481,14.406483 Z"
       id="path24-2"
       inkscape:connector-curvature="0"
       sodipodi:nodetypes="ccccccc" />
    <path
       style="fill:none;stroke:#000000;stroke-width:0.21838899px;stroke-linecap:butt;stroke-linejoin:miter;stroke-opacity:1"
       d="m 112.05011,154.53873 87.2305,-105.719706 -0.34847,60.462606 -86.97883,109.6053 z"
       id="path22-7"
       inkscape:connector-curvature="0"
       sodipodi:nodetypes="ccccc" />
    <path
       style="fill:none;stroke:#000000;stroke-width:0.17874564px;stroke-linecap:butt;stroke-linejoin:miter;stroke-opacity:1"
       d="M 67.39889,68.055974 91.774378,68.227162 91.980365,16.381741 11.380221,16.746216 11.206513,116.10504 91.797562,216.78077 91.674805,90.338928 67.205836,90.158131 c -0.255232,10.590559 -0.10729,40.563679 -0.362522,33.787549 l -22.191292,0.25876 -0.607619,-75.955617 23.287456,-0.299595 z"
       id="path20-6"
       inkscape:connector-curvature="0"
       sodipodi:nodetypes="ccccccccccccc" />
    <path
       style="fill:#ffffff;stroke:none;stroke-width:1px;stroke-linecap:butt;stroke-linejoin:miter;stroke-opacity:1"
       d="m 385.22737,774.64126 c -0.64963,-20.37669 -1.67327,-81.35885 -2.27475,-135.51588 l -1.09359,-98.46732 167.7137,-201.23785 167.7137,-201.23782 0,127.5069 0,127.5069 -163.9463,207.5536 C 463.16967,714.90426 388.72214,809.06534 387.90118,809.9966 c -0.82096,0.93128 -2.02417,-14.97862 -2.67381,-35.35534 z M 554.4243,579.27154 707.1849,386.60521 l 0,-108.28697 c 0,-92.19586 -0.41464,-107.84736 -2.7904,-105.32865 -1.53473,1.62707 -71.5383,86.35205 -155.5635,188.27774 l -152.77308,185.31943 0,115.63388 c 0,98.68778 0.41076,115.20032 2.80289,112.67557 1.5416,-1.62708 71.54517,-89.65817 155.56349,-195.62467 z"
       id="path3342"
       inkscape:connector-curvature="0"
       transform="scale(0.28222222,0.28222222)" />
    <path
       style="fill:#ffffff;stroke:none;stroke-width:1px;stroke-linecap:butt;stroke-linejoin:miter;stroke-opacity:1"
       d="M 180.41358,612.92734 24.368234,418.3845 24.345011,231.00121 24.321787,43.617913 l 158.593953,0 158.59394,0 0,107.076167 0,107.07617 -58.58884,0 -58.58885,0 0,-36.36549 0,-36.36549 -26.58624,0 -26.58623,0 1.33242,45.78336 c 0.73283,25.18084 1.33242,79.30249 1.33242,120.27034 l 0,74.48697 24.74874,-0.56726 24.74874,-0.56726 0.53558,-59.09392 0.5356,-59.09393 58.05325,-2.4e-4 58.05326,-2.4e-4 -0.63421,230.8201 c -0.34883,126.95106 -1.25797,239.724 -2.02031,250.60654 l -1.38609,19.78644 -156.04534,-194.54283 z m 146.27498,34.42884 C 325.95085,580.503 325.34724,479.13419 325.34724,422.09217 l 0,-103.71277 -44.44671,0 -44.44671,0 0,59.29838 0,59.29836 -37.88072,1.12727 c -20.8344,0.61999 -38.0794,0.9354 -38.32223,0.7009 -0.24283,-0.23449 -1.07073,-60.00896 -1.83978,-132.83213 l -1.39826,-132.4058 16.99206,-1.32251 c 9.34564,-0.72739 27.08626,-1.32797 39.42361,-1.33463 l 22.43153,-0.0121 1.44846,34.82332 c 0.79667,19.15283 1.71279,35.08765 2.03586,35.41072 0.32307,0.32306 20.03316,0.78975 43.80022,1.03709 l 43.21283,0.4497 0.52546,-92.42895 0.52546,-92.428961 -144.4722,0 -144.472197,0 0,177.022241 0,177.02224 142.827417,178.55145 c 78.55507,98.2033 143.70742,178.55146 144.78299,178.55146 1.25376,0 1.4742,-43.62227 0.61423,-121.55126 z"
       id="path3344"
       inkscape:connector-curvature="0"
       transform="scale(0.28222222,0.28222222)" />
    <path
       style="fill:#ffffff;stroke:none;stroke-width:1px;stroke-linecap:butt;stroke-linejoin:miter;stroke-opacity:1"
       d="m 383.9392,320.90479 c 0.002,-76.39279 0.60359,-170.94307 1.33751,-210.11173 l 1.3344,-71.215757 38.15491,0 38.15491,0 -1.24004,65.154837 c -1.02774,53.9999 -0.78484,64.61771 1.41876,62.01754 1.46234,-1.72551 23.78556,-30.44262 49.60716,-63.8158 l 46.94837,-60.67851 86.2547,-1.307738 c 47.4401,-0.719255 86.63779,-0.924655 87.106,-0.456445 0.8737,0.873697 -346.59293,419.309573 -348.19214,419.309573 -0.48821,0 -0.88625,-62.50319 -0.88454,-138.89597 z m 169.43299,-82.8273 C 637.96919,136.68629 707.1849,53.261315 707.1849,52.688651 c 0,-0.572664 -31.97027,-0.802293 -71.04508,-0.510286 l -71.04508,0.530921 -56.73921,74.110044 c -31.20657,40.76052 -57.51692,74.85317 -58.46744,75.76144 -0.95665,0.91413 -1.39467,-32.84879 -0.9811,-75.62527 l 0.74713,-77.276671 -26.7981,0 -26.7981,0 0,187.046581 c 0,104.67242 0.77103,186.75 1.75078,186.37313 0.96293,-0.37038 70.9665,-83.62986 155.56349,-185.02105 z"
       id="path3346"
       inkscape:connector-curvature="0"
       transform="scale(0.28222222,0.28222222)" />
  </g>
</svg>
