<?xml version="1.0" encoding="UTF-8" standalone="no"?>
<!-- Created with Inkscape (http://www.inkscape.org/) -->

<svg
   xmlns:dc="http://purl.org/dc/elements/1.1/"
   xmlns:cc="http://creativecommons.org/ns#"
   xmlns:rdf="http://www.w3.org/1999/02/22-rdf-syntax-ns#"
   xmlns:svg="http://www.w3.org/2000/svg"
   xmlns="http://www.w3.org/2000/svg"
   xmlns:sodipodi="http://sodipodi.sourceforge.net/DTD/sodipodi-0.dtd"
   xmlns:inkscape="http://www.inkscape.org/namespaces/inkscape"
   width="210mm"
   height="297mm"
   viewBox="0 0 210 297"
   version="1.1"
   id="svg8"
   sodipodi:docname="logo.svg"
   inkscape:version="0.91 r13725">
  <defs
     id="defs2" />
  <sodipodi:namedview
     id="base"
     pagecolor="#ffffff"
     bordercolor="#666666"
     borderopacity="1.0"
     inkscape:pageopacity="0.0"
     inkscape:pageshadow="2"
     inkscape:zoom="0.49497475"
     inkscape:cx="387.57264"
     inkscape:cy="546.49849"
     inkscape:document-units="mm"
     inkscape:current-layer="layer1"
     showgrid="false"
     inkscape:window-width="1311"
     inkscape:window-height="744"
     inkscape:window-x="55"
     inkscape:window-y="24"
     inkscape:window-maximized="1"
     showguides="false" />
  <metadata
     id="metadata5">
    <rdf:RDF>
      <cc:Work
         rdf:about="">
        <dc:format>image/svg+xml</dc:format>
        <dc:type
           rdf:resource="http://purl.org/dc/dcmitype/StillImage" />
      </cc:Work>
    </rdf:RDF>
  </metadata>
  <g
     inkscape:label="Layer 1"
     inkscape:groupmode="layer"
     id="layer1">
    <path
       style="fill:none;stroke:#000000;stroke-width:0.25692359px;stroke-linecap:butt;stroke-linejoin:miter;stroke-opacity:1"
       d="m 62.80888,73.222683 33.968396,-0.0072 0.0073,-61.180708 -90.416534,0.07184 0.041747,106.045781 89.4643949,111.56034 0.685469,-143.829006 -33.910287,0.181048 0.159567,33.356818 -13.361659,0.10608 -0.374352,-66.810574 13.802105,-0.196929 z"
       id="path20"
       inkscape:connector-curvature="0"
       sodipodi:nodetypes="ccccccccccccc" />
    <path
       style="fill:none;stroke:#000000;stroke-width:0.25527281px;stroke-linecap:butt;stroke-linejoin:miter;stroke-opacity:1"
       d="M 107.43816,152.32766 202.95911,37.726079 202.9066,111.03491 108.3967,230.56912 Z"
       id="path22"
       inkscape:connector-curvature="0"
       sodipodi:nodetypes="ccccc" />
    <path
       style="fill:none;stroke:#000000;stroke-width:0.25405556px;stroke-linecap:butt;stroke-linejoin:miter;stroke-opacity:1"
       d="M 107.90332,131.56952 208.25053,10.912648 157.84837,11.354746 130.22888,47.109969 131.01914,10.81585 108.35246,11.049543 Z"
       id="path24"
       inkscape:connector-curvature="0" />
    <path
       style="fill:none;stroke:#000000;stroke-width:0.18007439px;stroke-linecap:butt;stroke-linejoin:miter;stroke-opacity:1"
       d="M 112.38233,119.08658 199.24409,14.917264 159.94008,14.892554 126.06821,59.1854 126.60765,14.53927 112.27481,14.406483 Z"
       id="path24-2"
       inkscape:connector-curvature="0"
       sodipodi:nodetypes="ccccccc" />
    <path
       style="fill:none;stroke:#000000;stroke-width:0.21838899px;stroke-linecap:butt;stroke-linejoin:miter;stroke-opacity:1"
       d="m 112.05011,154.53873 87.2305,-105.719706 -0.34847,60.462606 -86.97883,109.6053 z"
       id="path22-7"
       inkscape:connector-curvature="0"
       sodipodi:nodetypes="ccccc" />
    <path
       style="fill:none;stroke:#000000;stroke-width:0.17874564px;stroke-linecap:butt;stroke-linejoin:miter;stroke-opacity:1"
       d="M 67.39889,68.055974 91.774378,68.227162 91.980365,16.381741 11.380221,16.746216 11.206513,116.10504 91.797562,216.78077 91.674805,90.338928 67.205836,90.158131 c -0.255232,10.590559 -0.10729,40.563679 -0.362522,33.787549 l -22.191292,0.25876 -0.607619,-75.955617 23.287456,-0.299595 z"
       id="path20-6"
       inkscape:connector-curvature="0"
       sodipodi:nodetypes="ccccccccccccc" />
    <path
       style="fill:#aa00d4;stroke:none;stroke-width:1px;stroke-linecap:butt;stroke-linejoin:miter;stroke-opacity:1"
       d="M 180.4754,612.69799 24.491876,418.3845 l -0.08504,-187.38329 -0.08505,-187.3833 158.593953,0 158.59395,0 0,107.07617 0,107.07617 -58.58885,0 -58.58885,0 0,-36.36549 0,-36.36549 -26.58857,0 -26.58857,0 1.33475,54.87646 c 0.73412,30.18206 1.33476,84.27573 1.33476,120.20817 l 0,65.33167 25.25382,0 25.25381,0 0,-59.599 0,-59.599 58.08377,-4e-4 58.08377,-4.1e-4 -0.61029,220.71874 c -0.33565,121.3953 -1.24479,234.06511 -2.02031,250.37736 L 336.45892,807.01148 180.4754,612.69799 Z m 146.89215,91.89356 c 0,-35.37374 -0.60421,-136.74255 -1.34267,-225.26402 l -1.34268,-160.94813 -44.11419,0 -44.11419,0 0,59.31252 0,59.31252 -37.88072,1.06818 c -20.8344,0.5875 -38.0556,0.92035 -38.26935,0.73965 -0.21374,-0.18061 -1.03747,-59.93475 -1.8305,-132.78677 l -1.44189,-132.45825 18.8084,-1.33506 c 10.34461,-0.73428 28.13804,-1.33506 39.54094,-1.33506 l 20.73254,0 0.67537,34.18087 c 0.37145,18.79947 1.21264,34.71633 1.86932,35.37078 0.65668,0.65446 20.88499,1.78232 44.95179,2.50636 l 43.75783,1.31644 0,-93.25576 0,-93.255774 -144.45181,0 -144.451817,0 0.0012,177.281774 0.0012,177.28177 142.629241,178.29192 c 78.44608,98.06056 143.44887,178.29193 144.45063,178.29193 1.04351,0 1.82139,-27.46809 1.82139,-64.31589 z"
       id="path4186"
       inkscape:connector-curvature="0"
       transform="scale(0.28222222,0.28222222)" />
    <path
       style="fill:#aa00d4;stroke:none;stroke-width:1px;stroke-linecap:butt;stroke-linejoin:miter;stroke-opacity:1"
       d="m 385.22293,768.3861 c -0.6488,-23.60337 -1.66125,-84.41506 -2.24989,-135.13708 l -1.07025,-92.22185 163.8149,-196.68178 C 635.81587,236.17042 711.2772,145.8706 713.40951,143.67913 c 3.82351,-3.92959 3.87692,-2.24185 3.87692,122.49532 l 0,126.47981 L 559.42054,592.3976 C 472.59431,702.25644 398.14544,796.45203 393.97861,801.72113 l -7.57605,9.58019 -1.17963,-42.91522 z M 555.44136,578.46708 707.21998,387.01658 706.69737,278.62847 706.17475,170.24036 551.1716,357.95205 396.16844,545.66372 l -0.0553,116.11142 c -0.0541,113.75039 0.0221,116.03041 3.74715,112.12694 2.09132,-2.19147 72.10279,-90.13721 155.58103,-195.435 z"
       id="path4188"
       inkscape:connector-curvature="0"
       transform="scale(0.28222222,0.28222222)" />
    <path
       style="fill:#aa00d4;stroke:none;stroke-width:1px;stroke-linecap:butt;stroke-linejoin:miter;stroke-opacity:1"
       d="m 383.93867,336.50602 c 0.001,-68.30595 0.60402,-163.05825 1.33912,-210.56068 l 1.33655,-86.36804 38.09929,0 38.09929,0 -1.37644,64.64976 c -0.75705,35.55737 -0.88777,64.64977 -0.2905,64.64977 0.59728,0 23.07299,-28.4914 49.94605,-63.3142 l 48.86009,-63.314204 86.1307,-1.279804 c 47.37189,-0.703892 86.43768,-0.972828 86.81287,-0.597635 0.62486,0.624867 -336.45257,407.222013 -345.15711,416.343193 -3.72508,3.90339 -3.80243,1.45648 -3.79991,-120.20816 z M 553.52382,238.27599 C 638.03742,136.99397 707.18491,53.580622 707.18491,52.912996 c 0,-0.667626 -32.04709,-1.161294 -71.21576,-1.09704 l -71.21575,0.116825 -54.54824,71.663809 c -30.00153,39.4151 -56.19707,73.68246 -58.2123,76.14969 -3.54984,4.34604 -3.63872,2.07684 -2.85088,-72.79078 l 0.81319,-77.276675 -26.94863,0 -26.94862,0 0,187.046575 c 0,116.09934 0.72159,186.79114 1.90241,186.37314 1.04632,-0.37038 71.04989,-83.54054 155.56349,-184.82255 z"
       id="path4190"
       inkscape:connector-curvature="0"
       transform="scale(0.28222222,0.28222222)" />
  </g>
</svg>
